<ttFont>
          <CharString index="0">
            vlineto
            -106 callsubr
            return
          </CharString>
          <CharString index="1">
            26 -102 callsubr
            return
          </CharString>
          <CharString index="2">
            -107 callgsubr
            227 -107 callsubr
            return
          </CharString>
          <CharString index="3">
            -101 callsubr
            -202 88 202 -107 callsubr
            return
          </CharString>
          <CharString index="4">
            -53 -98 callsubr
            return
          </CharString>
          <CharString index="5">
            5 -91 callsubr
            return
          </CharString>
          <CharString index="6">
            -100 callsubr
            277 59 -236 hlineto
            -101 callgsubr
            244 hlineto
            26 7 -66 callgsubr
            return
          </CharString>
          <CharString index="7">
            vlineto
            -105 callgsubr
            return
          </CharString>
          <CharString index="8">
            26 -88 callgsubr
            return
          </CharString>
          <CharString index="9">
            -26 -75 callgsubr
            return
          </CharString>
          <CharString index="10">
            5 26 hvcurveto
            return
          </CharString>
          <CharString index="11">
            -96 callgsubr
            -268 hlineto
            return
          </CharString>
          <CharString index="12">
            -26 53 vhcurveto
            return
          </CharString>
          <CharString index="13">
            -53 -26 -26 -53 hvcurveto
            -95 88 84 -92 callsubr
            return
          </CharString>
          <CharString index="14">
            -90 callsubr
            -87 return
          </CharString>
          <CharString index="15">
            vlineto
            -88 callsubr
            return
          </CharString>
          <CharString index="16">
            5 26 vhcurveto
            return
          </CharString>
          <CharString index="17">
            hlineto
            -81 callgsubr
            return
          </CharString>
          <CharString index="18">
            104 callgsubr
            59 -149 hlineto
            -101 callgsubr
            return
          </CharString>
          <CharString index="19">
            26 6 -91 callsubr
            264 -31 callgsubr
            -177 -29 callgsubr
            -295 49 -89 -294 hlineto
            -81 callsubr
            return
          </CharString>
          <CharString index="20">
            88 392 -43 callsubr
            251 -61 callsubr
            -235 -59 276 -85 callgsubr
            249 -84 callsubr
            -294 hlineto
            -60 callsubr
            vlineto
            endchar
          </CharString>
          <CharString index="21">
            26 5 -5 -26 hvcurveto
            -162 vlineto
            -26 -5 -5 -26 vhcurveto
            -298 137 -89 -397 hlineto
            105 callgsubr
            return
          </CharString>
          <CharString index="22">
            -105 callgsubr
            -92 callgsubr
          </CharString>
          <CharString index="23">
            vlineto
            -78 callgsubr
            return
          </CharString>
          <CharString index="24">
            -82 callsubr
            -166 vlineto
            -42 callsubr
            return
          </CharString>
          <CharString index="25">
            -107 callgsubr
            101 -107 callsubr
            158 59 -158 -103 callgsubr
            142 -107 callsubr
            259 85 callgsubr
            81 117 -53 callsubr
            -334 hlineto
            -103 callsubr
            return
          </CharString>
          <CharString index="26">
            -62 callgsubr
            337 255 callsubr
            199 -53 callsubr
            return
          </CharString>
          <CharString index="27">
            -82 callgsubr
            269 return
          </CharString>
          <CharString index="28">
            -70 callgsubr
            269 return
          </CharString>
          <CharString index="29">
            -59 527 hlineto
            -91 callgsubr
            return
          </CharString>
          <CharString index="30">
            hlineto
            -103 callsubr
            -154 27 callsubr
            132 vlineto
            26 6 -91 callsubr
            253 -31 callgsubr
            -305 56 callgsubr
            159 -9 callsubr
            return
          </CharString>
          <CharString index="31">
            -76 callgsubr
            269 230 -426 17 callsubr
          </CharString>
          <CharString index="32">
            -6 callgsubr
            88 -6 callsubr
            return
          </CharString>
          <CharString index="33">
            1 6 0 7 7 vvcurveto
            177 vlineto
            14 -3 8 -6 5 vhcurveto
            return
          </CharString>
          <CharString index="34">
            -26 vhcurveto
            -281 -70 callsubr
            return
          </CharString>
          <CharString index="35">
            485 -77 callgsubr
            return
          </CharString>
          <CharString index="36">
            5 callgsubr
            -426 95 callsubr
          </CharString>
          <CharString index="37">
            -64 callsubr
            59 return
          </CharString>
          <CharString index="38">
            157 callsubr
            105 2 callgsubr
            return
          </CharString>
          <CharString index="39">
            -99 callsubr
            -162 -94 callgsubr
            return
          </CharString>
          <CharString index="40">
            hlineto
            -67 callgsubr
            return
          </CharString>
          <CharString index="41">
            185 callgsubr
            596 -346 vlineto
            -29 -11 -10 -29 vhcurveto
            -288 -10 callgsubr
            328 hlineto
            18 11 4 10 7 hvcurveto
            -134 -83 callgsubr
          </CharString>
          <CharString index="42">
            -59 -63 callgsubr
            return
          </CharString>
          <CharString index="43">
            -106 callgsubr
            265 return
          </CharString>
          <CharString index="44">
            -27 callgsubr
            -95 -30 callsubr
            return
          </CharString>
          <CharString index="45">
            -59 callsubr
            25 -76 callgsubr
            return
          </CharString>
          <CharString index="46">
            -56 callgsubr
            -227 -94 callgsubr
            return
          </CharString>
          <CharString index="47">
            -14 -11 -3 -6 -7 hvcurveto
            87 return
          </CharString>
          <CharString index="48">
            144 callsubr
            53 return
          </CharString>
          <CharString index="49">
            58 callgsubr
            -426 95 callsubr
          </CharString>
          <CharString index="50">
            -93 callsubr
            88 return
          </CharString>
          <CharString index="51">
            -11 callsubr
            -286 hlineto
            -101 callgsubr
            return
          </CharString>
          <CharString index="52">
            11 callsubr
            -397 hlineto
            32 callsubr
            438 59 -395 -36 callgsubr
            return
          </CharString>
          <CharString index="53">
            -100 callsubr
            368 -56 callsubr
            return
          </CharString>
          <CharString index="54">
            vlineto
            53 -25 -42 callgsubr
            return
          </CharString>
          <CharString index="55">
            -347 96 callgsubr
            return
          </CharString>
          <CharString index="56">
            -34 callgsubr
            317 return
          </CharString>
          <CharString index="57">
            23 -9 -19 9 -27 hhcurveto
            -237 hlineto
            -53 -26 -26 -53 hvcurveto
            -327 59 callgsubr
            return
          </CharString>
          <CharString index="58">
            79 callgsubr
            -152 vlineto
            -15 3 -9 7 -5 vhcurveto
            -46 -5 -16 -32 -43 vvcurveto
            -125 -100 callsubr
            311 hlineto
            18 11 4 10 7 hvcurveto
            -92 89 222 -89 -46 vlineto
            -29 -11 -10 -29 vhcurveto
            -266 -103 callgsubr
            217 callsubr
            return
          </CharString>
          <CharString index="59">
            160 vlineto
            endchar
          </CharString>
          <CharString index="60">
            -26 -8 -8 -26 vhcurveto
            return
          </CharString>
          <CharString index="61">
            vlineto
            -89 callgsubr
            return
          </CharString>
          <CharString index="62">
            24 callgsubr
            25 -76 callsubr
          </CharString>
          <CharString index="63">
            -103 callsubr
            -190 -100 callsubr
            406 hlineto
            53 25 -76 callgsubr
            return
          </CharString>
          <CharString index="64">
            vlineto
            -29 callsubr
            return
          </CharString>
          <CharString index="65">
            -31 15 -16 26 -2 vhcurveto
            -4 274 callsubr
            return
          </CharString>
          <CharString index="66">
            -494 -103 callgsubr
            return
          </CharString>
          <CharString index="67">
            -26 vhcurveto
            -272 -103 callgsubr
            return
          </CharString>
          <CharString index="68">
            vlineto
            -50 callsubr
            return
          </CharString>
          <CharString index="69">
            hlineto
            53 25 -76 callgsubr
            132 -53 callsubr
            -207 -59 145 callgsubr
            -110 -94 callgsubr
            -312 hlineto
            -101 callgsubr
            return
          </CharString>
          <CharString index="70">
            171 -54 callgsubr
            395 337 vlineto
            return
          </CharString>
          <CharString index="71">
            rmoveto
            88 callsubr
            hlineto
            -101 callgsubr
            228 -56 callgsubr
            -296 90 7 callgsubr
            302 249 callgsubr
          </CharString>
          <CharString index="72">
            rmoveto
            147 380 149 -380 rlineto
            71 -182 rmoveto
            87 hlineto
            -243 622 rlineto
            -127 hlineto
            -242 -622 rlineto
            88 hlineto
            47 123 rlineto
            342 hlineto
            endchar
          </CharString>
          <CharString index="73">
            vlineto
            -26 211 callgsubr
            return
          </CharString>
          <CharString index="74">
            rmoveto
            -391 196 callgsubr
            -220 1 callgsubr
            -86 -406 59 callgsubr
            -32 86 485 vlineto
            endchar
          </CharString>
          <CharString index="75">
            346 -53 callgsubr
          </CharString>
          <CharString index="76">
            137 callsubr
            144 120 callsubr
            hlineto
            26 5 -6 -25 hvcurveto
            -92 87 102 vlineto
            54 -27 26 -53 vhcurveto
            -322 65 callsubr
          </CharString>
          <CharString index="77">
            4 callgsubr
            357 -23 callgsubr
            return
          </CharString>
          <CharString index="78">
            26 8 8 26 vhcurveto
            return
          </CharString>
          <CharString index="79">
            -56 vlineto
            -53 26 -25 53 vhcurveto
            343 hlineto
            26 6 -6 -26 hvcurveto
            -72 -29 callgsubr
            -338 53 -89 -190 89 78 380 hlineto
            53 25 -76 callgsubr
            95 195 callgsubr
            return
          </CharString>
          <CharString index="80">
            314 21 callsubr
            155 -84 callsubr
            -324 hlineto
            -103 callsubr
            return
          </CharString>
          <CharString index="81">
            75 callgsubr
            -95 callgsubr
            return
          </CharString>
          <CharString index="82">
            6 callsubr
            220 hlineto
            24 10 -9 -26 hvcurveto
            -297 196 callgsubr
            34 return
          </CharString>
          <CharString index="83">
            -2 callgsubr
            102 return
          </CharString>
          <CharString index="84">
            -26 -6 -97 callsubr
            return
          </CharString>
          <CharString index="85">
            -99 callsubr
            -132 -34 callsubr
            return
          </CharString>
          <CharString index="86">
            rmoveto
            47 -20 22 -45 vhcurveto
            -222 hlineto
            -44 -21 -22 -47 hvcurveto
            -193 vlineto
            -47 21 -22 44 vhcurveto
            222 hlineto
            45 20 22 47 hvcurveto
            -70 12 rmoveto
            -24 -3 -5 -24 vhcurveto
            -157 hlineto
            -24 -3 5 24 hvcurveto
            169 vlineto
            24 3 5 24 vhcurveto
            157 hlineto
            24 3 -5 -24 hvcurveto
            return
          </CharString>
          <CharString index="87">
            -107 callgsubr
            142 -27 callsubr
            return
          </CharString>
          <CharString index="88">
            -84 callsubr
            98 callsubr
            vlineto
            endchar
          </CharString>
          <CharString index="89">
            563 160 return
          </CharString>
          <CharString index="90">
            -103 callsubr
            -327 -100 callsubr
            return
          </CharString>
          <CharString index="91">
            -105 callgsubr
            -32 callsubr
          </CharString>
          <CharString index="92">
            -32 callgsubr
            658 -280 89 91 callgsubr
          </CharString>
          <CharString index="93">
            rmoveto
            130 260 callsubr
            -464 vlineto
            -53 26 -26 53 vhcurveto
            336 -85 callgsubr
            130 -88 -119 -94 callgsubr
            -256 -103 callgsubr
            442 -107 callsubr
            256 -56 callgsubr
            -119 vlineto
            endchar
          </CharString>
          <CharString index="94">
            rmoveto
            -87 -543 hlineto
            119 callgsubr
            543 -86 48 callgsubr
            return
          </CharString>
          <CharString index="95">
            176 28 callsubr
            -29 vhcurveto
            -496 -103 callgsubr
            86 268 -46 callsubr
            73 -84 callsubr
            return
          </CharString>
          <CharString index="96">
            -85 callgsubr
            165 -89 -154 -94 callgsubr
            return
          </CharString>
          <CharString index="97">
            207 -14 callgsubr
            return
          </CharString>
          <CharString index="98">
            -107 callsubr
            171 59 -171 -103 callgsubr
            162 -107 callsubr
            return
          </CharString>
          <CharString index="99">
            vlineto
            -16 callsubr
          </CharString>
          <CharString index="100">
            rmoveto
            79 -84 callsubr
            -288 hlineto
            -17 callsubr
            288 13 callsubr
          </CharString>
          <CharString index="101">
            71 -53 callsubr
            return
          </CharString>
          <CharString index="102">
            hlineto
            26 17 5 11 10 hvcurveto
            -11 13 19 -5 24 227 callsubr
          </CharString>
          <CharString index="103">
            -6 -79 callgsubr
            return
          </CharString>
          <CharString index="104">
            hlineto
            185 callgsubr
            596 -346 vlineto
            -29 -11 -10 -29 vhcurveto
            -288 -103 callgsubr
            155 196 callsubr
            277 59 -313 223 callgsubr
            -178 vlineto
            -50 22 -29 50 vhcurveto
            261 hlineto
            -123 -167 rlineto
            98 hlineto
            134 185 rlineto
            -137 -83 callgsubr
          </CharString>
          <CharString index="105">
            vlineto
            -47 callsubr
            -280 -103 callgsubr
            return
          </CharString>
          <CharString index="106">
            16 callsubr
            hlineto
            -105 callgsubr
            return
          </CharString>
          <CharString index="107">
            -103 callsubr
            -464 -100 callsubr
            return
          </CharString>
          <CharString index="108">
            hlineto
            5 callsubr
            return
          </CharString>
          <CharString index="109">
            6 callsubr
            220 hlineto
            24 10 -9 -26 hvcurveto
            -297 196 callgsubr
            120 -46 rmoveto
            472 -86 -32 -39 callsubr
            -30 1 -53 -94 callgsubr
            -324 -59 362 -85 callgsubr
            75 vlineto
            endchar
          </CharString>
          <CharString index="110">
            hlineto
            -89 -166 rlineto
            89 hlineto
            66 134 64 -134 rlineto
            90 hlineto
            -88 166 rlineto
            return
          </CharString>
          <CharString index="111">
            vlineto
            -15 callsubr
          </CharString>
          <CharString index="112">
            -105 callgsubr
            26 callgsubr
            return
          </CharString>
          <CharString index="113">
            rmoveto
            -101 callgsubr
            return
          </CharString>
          <CharString index="114">
            622 rmoveto
            return
          </CharString>
          <CharString index="115">
            338 -53 callgsubr
          </CharString>
          <CharString index="116">
            hlineto
            26 17 5 11 10 hvcurveto
            -11 13 19 -5 24 229 callgsubr
          </CharString>
          <CharString index="117">
            45 15 4 26 vhcurveto
            49 51 -64 hlineto
            -46 -26 -24 -40 hvcurveto
            -10 vlineto
            -29 9 -40 0 vhcurveto
            0 -17 62 -11 34 vhcurveto
            -15 47 rlineto
            -80 hlineto
            32 -64 26 -52 21 -34 31 -45 rlinecurve
            -5 hlineto
            -30 44 -29 37 -60 65 -45 49 rcurveline
            -107 hlineto
            152 -134 return
          </CharString>
          <CharString index="118">
            88 callsubr
            174 -89 return
          </CharString>
          <CharString index="119">
            -249 -8 callgsubr
          </CharString>
          <CharString index="120">
            -85 callgsubr
            79 -86 -68 -94 callgsubr
            -212 hlineto
            -101 callgsubr
            212 -56 callgsubr
            -68 vlineto
            endchar
          </CharString>
          <CharString index="121">
            -84 callsubr
            -318 -36 callgsubr
            return
          </CharString>
          <CharString index="122">
            rmoveto
            42 callgsubr
            118 41 callgsubr
            394 -251 rlineto
            -2 -3 0 -3 hhcurveto
            return
          </CharString>
          <CharString index="123">
            -59 140 -406 return
          </CharString>
          <CharString index="124">
            89 -80 callgsubr
          </CharString>
          <CharString index="125">
            rmoveto
            109 -84 callsubr
            -337 hlineto
            0 callsubr
            337 172 callsubr
            -256 -59 169 -171 vlineto
            -34 callgsubr
            442 -107 callsubr
            257 -56 callgsubr
            -98 vlineto
            endchar
          </CharString>
          <CharString index="126">
            211 callsubr
            -212 hlineto
            -105 callgsubr
            return
          </CharString>
          <CharString index="127">
            -105 callgsubr
            8 callsubr
          </CharString>
          <CharString index="128">
            vlineto
            53 26 25 53 hvcurveto
            return
          </CharString>
          <CharString index="129">
            -59 578 -78 -370 vlineto
            218 callsubr
            -62 4 callgsubr
            344 -56 callgsubr
            -66 -94 callgsubr
            -329 53 -89 -190 89 78 370 -85 callgsubr
            88 -84 callsubr
            -344 -103 callgsubr
            40 -107 callsubr
            return
          </CharString>
          <CharString index="130">
            hlineto
            42 callgsubr
            return
          </CharString>
          <CharString index="131">
            19 callsubr
            591 -74 callgsubr
          </CharString>
          <CharString index="132">
            93 callsubr
            -308 hlineto
            -101 callgsubr
            308 -31 callgsubr
            227 168 rmoveto
            59 return
          </CharString>
          <CharString index="133">
            314 84 callgsubr
            161 vlineto
            endchar
          </CharString>
          <CharString index="134">
            -100 callsubr
            167 59 -129 -36 callgsubr
            return
          </CharString>
          <CharString index="135">
            rmoveto
            -29 -11 -10 return
          </CharString>
          <CharString index="136">
            861 168 93 callsubr
            -227 -86 callgsubr
            -31 callgsubr
            -374 -227 rmoveto
            88 callsubr
            -106 callgsubr
            228 -56 callgsubr
            90 90 rmoveto
            -29 -13 -12 -21 -4 hvcurveto
            -4 hlineto
            -4 callgsubr
            263 callgsubr
            -95 callgsubr
            281 hlineto
            36 16 10 23 5 hvcurveto
            4 hlineto
            -22 5 12 -11 29 hhcurveto
            292 -85 callgsubr
            249 -84 callsubr
            return
          </CharString>
          <CharString index="137">
            -6 -5 -3 -8 -14 vvcurveto
            return
          </CharString>
          <CharString index="138">
            157 callgsubr
            563 160 vlineto
            endchar
          </CharString>
          <CharString index="139">
            -53 25 -95 callsubr
            return
          </CharString>
          <CharString index="140">
            -17 callgsubr
            -376 426 rmoveto
            410 -360 hlineto
            return
          </CharString>
          <CharString index="141">
            -49 callgsubr
            269 return
          </CharString>
          <CharString index="142">
            246 callgsubr
            -140 179 callsubr
            return
          </CharString>
          <CharString index="143">
            -346 hlineto
            -103 callsubr
            return
          </CharString>
          <CharString index="144">
            -397 25 callgsubr
            return
          </CharString>
          <CharString index="145">
            15 callgsubr
            566 196 rmoveto
            return
          </CharString>
          <CharString index="146">
            rmoveto
            230 293 59 -293 215 334 59 -423 -622 437 59 vlineto
            endchar
          </CharString>
          <CharString index="147">
            -1 callsubr
            383 -38 callgsubr
            return
          </CharString>
          <CharString index="148">
            rmoveto
            -107 callgsubr
            return
          </CharString>
          <CharString index="149">
            rmoveto
            23 3 5 25 vhcurveto
            131 hlineto
            25 3 -5 -23 hvcurveto
            -21 vlineto
            -23 -3 -5 -25 vhcurveto
            -131 hlineto
            -25 -3 5 23 hvcurveto
            182 -75 rmoveto
            44 22 20 46 hvcurveto
            39 vlineto
            45 -22 21 -44 vhcurveto
            -177 hlineto
            -44 -22 -21 -45 hvcurveto
            -39 vlineto
            -46 22 -20 44 vhcurveto
            return
          </CharString>
          <CharString index="150">
            rmoveto
            -17 callgsubr
            return
          </CharString>
          <CharString index="151">
            46 callsubr
            -58 return
          </CharString>
          <CharString index="152">
            rmoveto
            303 -56 callgsubr
            -219 -94 callgsubr
            -303 hlineto
            332 -282 rmoveto
            90 hlineto
            -140 223 rlineto
            59 172 callsubr
            -84 callsubr
            -428 -622 87 223 193 hlineto
            endchar
          </CharString>
          <CharString index="153">
            hlineto
            -82 callsubr
            return
          </CharString>
          <CharString index="154">
            -59 140 -406 vlineto
            5 callsubr
            return
          </CharString>
          <CharString index="155">
            37 callsubr
            26 17 5 11 10 hvcurveto
            -11 13 19 -5 24 hhcurveto
            return
          </CharString>
          <CharString index="156">
            hlineto
            54 callsubr
            return
          </CharString>
          <CharString index="157">
            115 -101 rlineto
            101 hlineto
            -166 143 rlineto
            -100 hlineto
            return
          </CharString>
          <CharString index="158">
            139 callgsubr
            70 callsubr
            return
          </CharString>
          <CharString index="159">
            123 callgsubr
            234 -56 callgsubr
            -117 vlineto
            return
          </CharString>
          <CharString index="160">
            vlineto
            58 callsubr
          </CharString>
          <CharString index="161">
            -22 callsubr
            -315 -198 209 callsubr
            return
          </CharString>
          <CharString index="162">
            vlineto
            53 -25 25 -53 vhcurveto
            -308 158 callgsubr
            return
          </CharString>
          <CharString index="163">
            -720 60 callgsubr
          </CharString>
          <CharString index="164">
            rmoveto
            62 callsubr
            return
          </CharString>
          <CharString index="165">
            -105 callgsubr
            324 -74 callgsubr
          </CharString>
          <CharString index="166">
            rmoveto
            102 -137 rlineto
            95 hlineto
            -106 137 rlineto
            return
          </CharString>
          <CharString index="167">
            -38 callsubr
            endchar
          </CharString>
          <CharString index="168">
            624 845 394 rmoveto
            24 4 8 26 vhcurveto
            226 hlineto
            26 4 -8 -24 hvcurveto
            -100 vlineto
            -24 -8 -8 -16 vhcurveto
            -236 hlineto
            -18 -8 10 22 hvcurveto
            -231 269 rmoveto
            723 59 -1357 -59 547 -301 -77 hlineto
            -161 155 rlineto
            63 -65 -54 5 257 callgsubr
            -134 -288 -234 rlineto
            120 hlineto
            246 202 rlineto
            85 -202 87 202 return
          </CharString>
          <CharString index="169">
            116 callsubr
            88 84 vlineto
            26 6 -91 callsubr
            264 -31 callgsubr
            -177 -29 callgsubr
            -295 49 -89 return
          </CharString>
          <CharString index="170">
            -107 callgsubr
            33 160 callsubr
            137 return
          </CharString>
          <CharString index="171">
            -116 36 46 callgsubr
            213 -485 rlineto
            30 hlineto
            -22 -45 rlineto
            -28 -14 -22 -9 -36 hhcurveto
            -66 -59 95 hlineto
            69 25 33 53 23 hvcurveto
            239 540 rlineto
            -87 hlineto
            -178 -426 -182 426 rlineto
            return
          </CharString>
          <CharString index="172">
            -103 callgsubr
            40 -107 callsubr
            endchar
          </CharString>
          <CharString index="173">
            253 callsubr
            53 -26 26 -53 vhcurveto
            return
          </CharString>
          <CharString index="174">
            vlineto
            -17 callsubr
            return
          </CharString>
          <CharString index="175">
            127 68 -103 108 hhcurveto
            98 hlineto
            55 23 30 47 hvcurveto
            84 -82 -58 vlineto
            -32 -16 -13 -40 vhcurveto
            -135 -44 103 -121 hhcurveto
            -102 hlineto
            -55 -22 -28 -48 hvcurveto
            -84 82 59 vlineto
            32 15 11 41 vhcurveto
            return
          </CharString>
          <CharString index="176">
            193 callgsubr
            hlineto
            endchar
          </CharString>
          <CharString index="177">
            -249 vlineto
            -53 26 -26 53 vhcurveto
            -13 callgsubr
            return
          </CharString>
          <CharString index="178">
            -59 425 hlineto
            -22 callsubr
            return
          </CharString>
          <CharString index="179">
            vlineto
            -282 -266 232 callsubr
            176 175 rlineto
            0 return
          </CharString>
          <CharString index="180">
            vlineto
            -39 callgsubr
            -64 103 callgsubr
            -162 -31 callsubr
          </CharString>
          <CharString index="181">
            rmoveto
            -804 -26 callgsubr
            172 vlineto
            14 -3 8 -6 5 vhcurveto
            169 hlineto
            endchar
          </CharString>
          <CharString index="182">
            15 -15 26 -2 vhcurveto
            -4 vlineto
            -26 -2 -15 -15 return
          </CharString>
          <CharString index="183">
            -51 callsubr
            -88 return
          </CharString>
          <CharString index="184">
            27 19 9 23 9 hvcurveto
            return
          </CharString>
          <CharString index="185">
            -11 callgsubr
            -134 -100 callsubr
            346 86 callsubr
            return
          </CharString>
          <CharString index="186">
            41 callsubr
            363 337 -360 vlineto
            -47 callsubr
            154 316 103 callsubr
            175 59 -828 161 callgsubr
            274 59 hlineto
            endchar
          </CharString>
          <CharString index="187">
            -56 callgsubr
            -163 return
          </CharString>
          <CharString index="188">
            28 callsubr
            -30 vhcurveto
            -474 236 callgsubr
            247 -46 callsubr
            148 208 callsubr
            133 callgsubr
            return
          </CharString>
          <CharString index="189">
            346 86 callsubr
            230 -310 -83 callgsubr
          </CharString>
          <CharString index="190">
            -426 43 callsubr
            return
          </CharString>
          <CharString index="191">
            rmoveto
            88 hlineto
            162 143 rlineto
            -110 hlineto
            return
          </CharString>
          <CharString index="192">
            -13 callsubr
            endchar
          </CharString>
          <CharString index="193">
            -85 callgsubr
            153 return
          </CharString>
          <CharString index="194">
            -347 96 callsubr
            return
          </CharString>
          <CharString index="195">
            -97 callgsubr
            -228 return
          </CharString>
          <CharString index="196">
            426 rmoveto
            137 return
          </CharString>
          <CharString index="197">
            563 197 callgsubr
          </CharString>
          <CharString index="198">
            -10 callsubr
            -554 426 rmoveto
            -63 callgsubr
            110 59 -783 vlineto
            return
          </CharString>
          <CharString index="199">
            -54 -98 callsubr
            -8 vlineto
            -38 10 -31 0 vhcurveto
            0 -15 44 -36 49 vhcurveto
            -45 63 rlineto
            -97 hlineto
            72 -98 return
          </CharString>
          <CharString index="200">
            rmoveto
            -33 callgsubr
            return
          </CharString>
          <CharString index="201">
            vlineto
            -22 callsubr
            -315 return
          </CharString>
          <CharString index="202">
            89 90 callsubr
          </CharString>
          <CharString index="203">
            vlineto
            -32 callgsubr
            return
          </CharString>
          <CharString index="204">
            vlineto
            102 callsubr
            return
          </CharString>
          <CharString index="205">
            -286 hlineto
            -60 callsubr
            return
          </CharString>
          <CharString index="206">
            113 callgsubr
            -1151 -65 callsubr
            230 return
          </CharString>
          <CharString index="207">
            -319 157 callsubr
            86 hlineto
            45 15 4 26 vhcurveto
            49 60 -71 hlineto
            92 callsubr
            31 -43 28 -33 21 -21 rlinecurve
            -157 229 callsubr
            return
          </CharString>
          <CharString index="208">
            hlineto
            53 25 -76 callgsubr
            71 -89 -60 243 callsubr
            -6 5 26 hvcurveto
            132 vlineto
            26 6 6 26 vhcurveto
            405 return
          </CharString>
          <CharString index="209">
            -105 callgsubr
            240 147 callgsubr
            104 hlineto
            145 175 rlineto
            -121 88 return
          </CharString>
          <CharString index="210">
            rmoveto
            -60 callsubr
            return
          </CharString>
          <CharString index="211">
            vlineto
            89 callgsubr
            return
          </CharString>
          <CharString index="212">
            rmoveto
            45 -22 21 -44 vhcurveto
            -177 hlineto
            -44 -22 -21 -45 hvcurveto
            -39 vlineto
            -46 22 -20 44 vhcurveto
            177 hlineto
            44 22 20 46 hvcurveto
            -61 9 rmoveto
            -23 -3 -5 -25 vhcurveto
            -131 hlineto
            -25 -3 5 23 hvcurveto
            21 vlineto
            23 3 5 25 vhcurveto
            131 hlineto
            25 3 -5 -23 hvcurveto
            return
          </CharString>
          <CharString index="213">
            -78 -149 67 callsubr
            return
          </CharString>
          <CharString index="214">
            76 callgsubr
            406 return
          </CharString>
          <CharString index="215">
            -87 88 392 -43 callsubr
            243 -61 callsubr
            -227 -59 268 -85 callgsubr
            249 -19 callsubr
          </CharString>
          <CharString index="216">
            107 callsubr
            250 -563 -83 callgsubr
          </CharString>
          <CharString index="217">
            -146 121 callsubr
            -1 -15 -16 -31 vvcurveto
            -104 -100 callsubr
            323 -90 callsubr
            -49 89 393 -89 -91 -313 vlineto
            -26 -6 6 26 hvcurveto
            124 vlineto
            26 6 -91 callsubr
            endchar
          </CharString>
          <CharString index="218">
            -26 vhcurveto
            -341 -103 callgsubr
            227 vlineto
            174 callgsubr
            173 59 return
          </CharString>
          <CharString index="219">
            194 callsubr
            -296 224 206 60 -206 220 296 -56 callgsubr
            -415 90 rmoveto
            -279 -52 -60 52 -283 424 152 callsubr
          </CharString>
          <CharString index="220">
            128 callgsubr
            -236 31 callgsubr
            return
          </CharString>
          <CharString index="221">
            vlineto
            55 callgsubr
          </CharString>
          <CharString index="222">
            284 hlineto
            -297 -367 rlineto
            -59 389 59 -297 vlineto
            297 367 rlineto
            return
          </CharString>
          <CharString index="223">
            -103 callsubr
            -95 return
          </CharString>
          <CharString index="224">
            104 callgsubr
            59 -149 -103 callgsubr
            260 -107 callsubr
            295 -224 hlineto
            58 callsubr
          </CharString>
          <CharString index="225">
            146 -322 vlineto
            -60 callsubr
            652 vlineto
            -68 callsubr
            return
          </CharString>
          <CharString index="226">
            -385 110 7 callsubr
            -622 88 622 vlineto
            return
          </CharString>
          <CharString index="227">
            -107 callsubr
            284 return
          </CharString>
          <CharString index="228">
            vlineto
            112 callgsubr
            -4 vlineto
            -26 return
          </CharString>
          <CharString index="229">
            -392 hlineto
            -96 callgsubr
            return
          </CharString>
          <CharString index="230">
            -100 callsubr
            237 hlineto
            return
          </CharString>
          <CharString index="231">
            259 callgsubr
            268 -421 rlineto
            -201 87 201 vlineto
            endchar
          </CharString>
          <CharString index="232">
            147 callsubr
            -152 -100 callsubr
            return
          </CharString>
          <CharString index="233">
            -249 53 callsubr
          </CharString>
          <CharString index="234">
            -95 callgsubr
            323 -93 callsubr
            return
          </CharString>
          <CharString index="235">
            -103 callgsubr
            129 return
          </CharString>
          <CharString index="236">
            187 -84 callsubr
            return
          </CharString>
          <CharString index="237">
            -89 8 -49 0 vhcurveto
            -394 252 rlineto
            -26 callsubr
            392 31 callsubr
          </CharString>
          <CharString index="238">
            67 -89 -55 243 callsubr
            -5 5 26 hvcurveto
            118 -107 callsubr
            return
          </CharString>
          <CharString index="239">
            rmoveto
            -123 -83 123 hlineto
            return
          </CharString>
          <CharString index="240">
            171 rmoveto
            -47 callsubr
            -396 hlineto
            174 callsubr
            430 hlineto
            return
          </CharString>
          <CharString index="241">
            86 callgsubr
            -95 4 callgsubr
            return
          </CharString>
          <CharString index="242">
            -105 callgsubr
            323 -90 callsubr
            -142 89 300 -89 -74 -2 callsubr
            172 -107 callsubr
            endchar
          </CharString>
          <CharString index="243">
            -49 143 callgsubr
            return
          </CharString>
          <CharString index="244">
            -100 callsubr
            441 59 -400 -103 callgsubr
            return
          </CharString>
          <CharString index="245">
            -230 hlineto
            88 callsubr
            return
          </CharString>
          <CharString index="246">
            vlineto
            -53 25 -25 53 vhcurveto
            return
          </CharString>
          <CharString index="247">
            209 callsubr
            -37 callgsubr
            return
          </CharString>
          <CharString index="248">
            -59 527 hlineto
            -60 callgsubr
            396 59 -355 -103 callgsubr
            190 return
          </CharString>
          <CharString index="249">
            rmoveto
            -248 52 callgsubr
            return
          </CharString>
          <CharString index="250">
            rlineto
            325 59 -363 hlineto
            -103 callsubr
            -95 callgsubr
            385 hlineto
            return
          </CharString>
          <CharString index="251">
            -95 callgsubr
            33 callgsubr
            return
          </CharString>
          <CharString index="252" raw="1">
            3c1dfbbb 0b  
          </CharString>
          <CharString index="253">
            158 callsubr
            252 rlineto
            345 59 return
          </CharString>
          <CharString index="254">
            93 callgsubr
            -64 103 callgsubr
            return
          </CharString>
          <CharString index="255">
            -120 210 callgsubr
            185 59 -137 hlineto
            156 callgsubr
            188 hlineto
            23 7 -8 -20 12 hvcurveto
            106 -183 rlineto
            102 hlineto
            return
          </CharString>
          <CharString index="256">
            -22 callsubr
            -295 215 callsubr
            519 hlineto
            18 12 4 11 7 hvcurveto
            -93 -83 callgsubr
          </CharString>
          <CharString index="257">
            65 callgsubr
            -88 return
          </CharString>
          <CharString index="258">
            vlineto
            -377 235 202 callsubr
            5 11 10 hvcurveto
            -11 13 19 -5 24 hhcurveto
            return
          </CharString>
          <CharString index="259">
            -46 callsubr
            464 225 callgsubr
          </CharString>
          <CharString index="260">
            rmoveto
            216 callgsubr
            88 hlineto
            endchar
          </CharString>
          <CharString index="261">
            -52 -25 -25 -51 hvcurveto
            -59 vlineto
            -30 14 -15 25 -2 vhcurveto
            -4 vlineto
            -25 -2 -14 -14 -30 vvcurveto
            -58 vlineto
            -52 25 -25 52 vhcurveto
            543 59 -507 hlineto
            -25 -5 5 25 hvcurveto
            return
          </CharString>
          <CharString index="262">
            223 callsubr
            87 vlineto
            24 8 9 26 vhcurveto
            return
          </CharString>
          <CharString index="263">
            -78 159 callsubr
            return
          </CharString>
          <CharString index="264">
            206 callsubr
            -160 return
          </CharString>
          <CharString index="265">
            172 callgsubr
            -394 return
          </CharString>
          <CharString index="266">
            -336 vlineto
            -103 callsubr
            return
          </CharString>
          <CharString index="267">
            -107 callsubr
            422 return
          </CharString>
          <CharString index="268">
            72 callgsubr
            224 -56 callgsubr
            -105 -71 callgsubr
            vlineto
            return
          </CharString>
          <CharString index="269">
            234 callsubr
            -165 hlineto
            251 callgsubr
            return
          </CharString>
          <CharString index="270">
            -317 hlineto
            -82 callgsubr
            return
          </CharString>
          <CharString index="271">
            203 callgsubr
            -563 -83 callgsubr
          </CharString>
          <CharString index="272">
            196 634 -196 hlineto
            236 -185 rmoveto
            196 185 -196 hlineto
            return
          </CharString>
          <CharString index="273">
            hlineto
            67 callgsubr
            -87 callgsubr
            return
          </CharString>
          <CharString index="274">
            hlineto
            101 callgsubr
            return
          </CharString>
          <CharString index="275">
            rmoveto
            174 callsubr
            return
          </CharString>
          <CharString index="276">
            197 59 6 callsubr
            220 hlineto
            24 10 -9 -26 hvcurveto
            -297 196 callgsubr
            return
          </CharString>
          <CharString index="277">
            hlineto
            176 callgsubr
          </CharString>
          <CharString index="278">
            vlineto
            176 callgsubr
          </CharString>
          <CharString index="279">
            -85 callgsubr
            241 return
          </CharString>
          <CharString index="280">
            rmoveto
            137 168 59 return
          </CharString>
          <CharString index="281">
            -107 callgsubr
            120 -107 callsubr
            213 59 -213 -103 callgsubr
            123 -107 callsubr
            return
          </CharString>
          <CharString index="282">
            -107 callsubr
            383 137 269 232 callgsubr
            -1169 267 callgsubr
            return
          </CharString>
          <CharString index="283">
            -243 -100 callsubr
            335 hlineto
            -124 -141 rlineto
            93 hlineto
            120 151 rlineto
            -94 17 callsubr
          </CharString>
          <CharString index="284">
            hlineto
            26 17 6 236 callsubr
            -6 25 227 callsubr
          </CharString>
          <CharString index="285">
            hlineto
            53 25 -76 callgsubr
            406 110 return
          </CharString>
          <CharString index="286">
            -143 rlineto
            88 hlineto
            return
          </CharString>
          <CharString index="287">
            672 rmoveto
            242 callsubr
            59 vlineto
            endchar
          </CharString>
          <CharString index="288" raw="1">
            2c0af7e2 060b  
          </CharString>
          <CharString index="289">
            176 28 callsubr
            -30 -55 callgsubr
            return
          </CharString>
          <CharString index="290" raw="1">
            f7a006c0 a50b  
          </CharString>
          <CharString index="291">
            173 callsubr
            -804 -59 548 241 callsubr
            return
          </CharString>
          <CharString index="292">
            238 callgsubr
            -829 -59 549 241 callgsubr
            return
          </CharString>
          <CharString index="293">
            vlineto
            20 callsubr
          </CharString>
          <CharString index="294">
            rmoveto
            563 -87 -622 409 59 vlineto
            endchar
          </CharString>
          <CharString index="295">
            137 41 callsubr
            return
          </CharString>
          <CharString index="296">
            93 hlineto
            -6 -5 -3 -9 -13 vvcurveto
            -231 -100 callsubr
            297 hlineto
            -154 -143 rlineto
            113 hlineto
            return
          </CharString>
          <CharString index="297">
            269 callgsubr
            -101 vlineto
            -28 11 -23 19 -15 vhcurveto
            -19 -14 -11 -23 -28 vvcurveto
            -101 210 callgsubr
            return
          </CharString>
          <CharString index="298">
            -105 callgsubr
            109 callsubr
          </CharString>
          <CharString index="299">
            -48 rmoveto
            -86 -485 86 349 hlineto
            50 20 25 45 vhcurveto
            117 61 -104 hlineto
            -43 -26 -26 -35 -9 hvcurveto
            endchar
          </CharString>
          <CharString index="300">
            vlineto
            174 callgsubr
            173 59 -376 return
          </CharString>
          <CharString index="301">
            90 rmoveto
            -97 callgsubr
            return
          </CharString>
          <CharString index="302">
            hlineto
            53 26 25 53 hvcurveto
            return
          </CharString>
          <CharString index="303">
            vlineto
            26 5 6 26 vhcurveto
            return
          </CharString>
          <CharString index="304">
            -59 140 -406 hlineto
            224 callgsubr
            return
          </CharString>
          <CharString index="305">
            -78 44 callgsubr
            return
          </CharString>
          <CharString index="306">
            -306 hlineto
            247 callgsubr
            -120 -143 rlineto
            101 hlineto
            return
          </CharString>
          <CharString index="307">
            -269 208 callgsubr
          </CharString>
          <CharString index="308">
            249 59 rmoveto
            return
          </CharString>
          <CharString index="309">
            143 callsubr
            26 17 return
          </CharString>
          <CharString index="310">
            rmoveto
            -514 vlineto
            -346 514 rlineto
            -93 -622 80 519 hlineto
            351 -519 rlineto
            88 622 hlineto
            return
          </CharString>
          <CharString index="311">
            76 631 89 callsubr
            158 59 -809 -59 563 156 callsubr
            return
          </CharString>
          <CharString index="312">
            hlineto
            -47 callsubr
            -280 -103 callgsubr
            return
          </CharString>
          <CharString index="313">
            389 7 callsubr
            return
          </CharString>
          <CharString index="314">
            -100 callsubr
            384 -74 callgsubr
          </CharString>
          <CharString index="315">
            vlineto
            14 -3 8 -6 5 vhcurveto
            229 hlineto
            return
          </CharString>
          <CharString index="316">
            hlineto
            16 callgsubr
            return
          </CharString>
          <CharString index="317">
            hlineto
            218 callgsubr
            return
          </CharString>
          <CharString index="318">
            -106 callsubr
            243 -31 callgsubr
            -132 -29 callgsubr
            -362 return
          </CharString>
          <CharString index="319">
            rmoveto
            -114 hlineto
            -262 -240 262 -245 rlineto
            114 hlineto
            -266 245 rlineto
            endchar
          </CharString>
          <CharString index="320">
            54 -27 -42 callgsubr
            -322 -103 callgsubr
            return
          </CharString>
          <CharString index="321">
            -53 -22 -22 -53 hvcurveto
            -120 210 callgsubr
            return
          </CharString>
          <CharString index="322">
            -211 hlineto
            -105 callgsubr
            return
          </CharString>
          <CharString index="323">
            46 callgsubr
            -103 callsubr
            return
          </CharString>
          <CharString index="324">
            106 -107 callsubr
            return
          </CharString>
          <CharString index="325">
            -53 -25 -75 callgsubr
            return
          </CharString>
          <CharString index="326">
            -32 14 -15 26 -2 vhcurveto
            -4 vlineto
            -26 -2 -14 -15 -31 vvcurveto
            -129 4 callgsubr
            return
          </CharString>
          <CharString index="327">
            25 5 5 25 vhcurveto
            35 59 -35 hlineto
            -25 130 callgsubr
            32 vlineto
            25 5 5 25 vhcurveto
            return
          </CharString>
          <CharString index="328">
            vlineto
            48 -21 30 -57 vhcurveto
            -256 72 hlineto
            14 -3 8 -6 5 vhcurveto
            463 hlineto
            endchar
          </CharString>
          <CharString index="329">
            321 237 callsubr
            89 return
          </CharString>
          <CharString index="330">
            -26 -8 9 24 hvcurveto
            return
          </CharString>
          <CharString index="331">
            hlineto
            -95 -165 rlineto
            88 hlineto
            61 123 59 -123 rlineto
            89 hlineto
            -93 165 rlineto
            return
          </CharString>
          <CharString index="332">
            vlineto
            -68 callsubr
            610 283 rmoveto
            return
          </CharString>
          <CharString index="333">
            146 callsubr
            -383 hlineto
            return
          </CharString>
          <CharString index="334">
            hhcurveto
            -92 callgsubr
          </CharString>
          <CharString index="335">
            390 699 rmoveto
            -411 -835 rlineto
            87 hlineto
            411 835 rlineto
            endchar
          </CharString>
          <CharString index="336">
            -61 callgsubr
            hlineto
            return
          </CharString>
          <CharString index="337">
            hlineto
            -103 callsubr
            -97 return
          </CharString>
          <CharString index="338">
            rmoveto
            347 58 -347 hlineto
            return
          </CharString>
          <CharString index="339">
            rlineto
            111 hlineto
            return
          </CharString>
          <CharString index="340">
            258 callsubr
            -229 90 rmoveto
            return
          </CharString>
          <CharString index="341">
            -36 240 callgsubr
            return
          </CharString>
          <CharString index="342">
            -112 -100 callsubr
            return
          </CharString>
          <CharString index="343">
            11 11 hvcurveto
            -11 13 18 return
          </CharString>
          <CharString index="344">
            hlineto
            53 25 25 53 hvcurveto
            return
          </CharString>
          <CharString index="345">
            -59 555 -78 return
          </CharString>
          <CharString index="346">
            195 callsubr
            132 268 callgsubr
            -150 78 return
          </CharString>
          <CharString index="347">
            -173 rmoveto
            66 callgsubr
            return
          </CharString>
          <CharString index="348">
            -78 -329 67 callsubr
            return
          </CharString>
          <CharString index="349">
            -59 229 -563 87 563 229 return
          </CharString>
          <CharString index="350">
            -94 callgsubr
            -285 hlineto
            -26 return
          </CharString>
          <CharString index="351" raw="1">
            a51ef78e 060b  
          </CharString>
          <CharString index="352">
            vhcurveto
            173 59 return
          </CharString>
          <CharString index="353">
            -426 rmoveto
            -105 callsubr
            return
          </CharString>
          <CharString index="354">
            -103 callgsubr
            216 -107 callsubr
            265 return
          </CharString>
          <CharString index="355">
            hlineto
            56 22 30 48 hvcurveto
            466 vlineto
            48 -22 30 -56 vhcurveto
            endchar
          </CharString>
          <CharString index="356">
            88 91 callgsubr
          </CharString>
          <CharString index="357">
            vlineto
            -31 15 -17 26 -1 vhcurveto
            -4 274 callsubr
            return
          </CharString>
          <CharString index="358">
            209 243 rmoveto
            268 hlineto
            97 callgsubr
            return
          </CharString>
          <CharString index="359">
            rlineto
            -58 36 20 -6 70 hhcurveto
            265 hlineto
            53 22 22 53 hvcurveto
            return
          </CharString>
          <CharString index="360">
            -85 callgsubr
            327 vlineto
            return
          </CharString>
          <CharString index="361">
            rmoveto
            -29 -19 -10 -25 -8 hvcurveto
            return
          </CharString>
          <CharString index="362">
            vlineto
            53 25 -76 callgsubr
            return
          </CharString>
          <CharString index="363">
            -85 callgsubr
            464 -84 callsubr
            return
          </CharString>
          <CharString index="364">
            hlineto
            -53 -25 -25 -53 hvcurveto
            -197 4 callgsubr
            return
          </CharString>
          <CharString index="365">
            181 callgsubr
            219 -56 callgsubr
            return
          </CharString>
          <CharString index="366">
            23 callsubr
            174 -107 callsubr
            return
          </CharString>
          <CharString index="367">
            -84 callsubr
            -336 hlineto
            -103 callsubr
            return
          </CharString>
          <CharString index="368">
            622 271 callsubr
            return
          </CharString>
          <CharString index="369">
            7 callsubr
            -103 callsubr
            return
          </CharString>
          <CharString index="370">
            vlineto
            201 callsubr
            return
          </CharString>
          <CharString index="371">
            26 vhcurveto
            243 -56 callgsubr
            -305 return
          </CharString>
          <CharString index="372">
            -407 100 46 callgsubr
            -485 86 485 vlineto
            return
          </CharString>
          <CharString index="373">
            -36 -20 -19 -19 -5 hvcurveto
            19 -6 -20 19 -39 hhcurveto
            return
          </CharString>
          <CharString index="374">
            hlineto
            -36 -20 -22 -35 hvcurveto
            -124 31 vlineto
            endchar
          </CharString>
          <CharString index="375">
            -89 callgsubr
            59 return
          </CharString>
          <CharString index="376">
            rmoveto
            137 154 59 return
          </CharString>
          <CharString index="377">
            -53 60 277 rmoveto
            520 68 -520 hlineto
            return
          </CharString>
          <CharString index="378">
            rmoveto
            99 callgsubr
            return
          </CharString>
          <CharString index="379">
            -48 vvcurveto
            -28 88 575 -48 callsubr
          </CharString>
          <CharString index="380">
            108 111 -108 hlineto
            return
          </CharString>
          <CharString index="381">
            vlineto
            -26 -2 -15 -14 -32 vvcurveto
            return
          </CharString>
          <CharString index="382">
            -56 -22 -30 -48 hvcurveto
            return
          </CharString>
          <CharString index="383" raw="1">
            561ffb46 070b  
          </CharString>
          <CharString index="384">
            -59 149 hlineto
            -6 -5 -3 -9 -13 vvcurveto
            return
          </CharString>
          <CharString index="385">
            25 26 -18 19 -26 -25 -19 -19 -26 vhcurveto
            return
          </CharString>
          <CharString index="386">
            -266 hlineto
            -60 callsubr
            return
          </CharString>
          <CharString index="387">
            103 callsubr
            280 return
          </CharString>
          <CharString index="388" raw="1">
            fbc50771 0b  
          </CharString>
          <CharString index="389">
            -284 hlineto
            -26 return
          </CharString>
        <CharString name=".notdef">
          57 180 hmoveto
          390 701 -390 hlineto
          54 -50 rmoveto
          282 -601 -282 hlineto
          endchar
        </CharString>
        <CharString name="A">
          -11 193 182 -35 callsubr
        </CharString>
        <CharString name="AE">
          321 275 204 rmoveto
          253 348 rlineto
          -348 vlineto
          88 -145 rmoveto
          230 294 59 -294 215 325 59 -454 vlineto
          -456 -622 rlineto
          95 hlineto
          106 145 rlineto
          296 -145 426 59 hlineto
          endchar
        </CharString>
        <CharString name="Aacute">
          -11 557 813 35 callsubr
          -202 -488 -35 callsubr
        </CharString>
        <CharString name="Abreve">
          -11 459 669 68 callgsubr
          -29 -487 -35 callsubr
        </CharString>
        <CharString name="Acircumflex">
          -11 340 770 rmoveto
          50 callsubr
          -166 -143 rlineto
          101 hlineto
          -32 -487 -35 callsubr
        </CharString>
        <CharString name="Adieresis">
          -11 534 752 132 callsubr
          -260 83 132 callsubr
          -81 -487 -35 callsubr
        </CharString>
        <CharString name="Agrave">
          -11 369 670 110 callgsubr
          -88 -488 -35 callsubr
        </CharString>
        <CharString name="Amacron">
          -11 515 728 217 callgsubr
          -322 -488 -35 callsubr
        </CharString>
        <CharString name="Aogonek">
          -11 193 182 rmoveto
          147 380 149 -380 rlineto
          9 -355 rmoveto
          251 callgsubr
          4 hlineto
          -4 10 rlineto
          1 vlineto
          0 vlineto
          -239 611 rlineto
          -127 hlineto
          -242 -622 rlineto
          88 hlineto
          47 123 rlineto
          342 hlineto
          48 -123 rlineto
          -36 -87 vlineto
          69 callsubr
        </CharString>
        <CharString name="Aring">
          -11 247 766 42 callsubr
          -59 -488 -35 callsubr
        </CharString>
        <CharString name="Atilde">
          -11 223 725 rmoveto
          15 5 8 12 vhcurveto
          -12 callgsubr
          vlineto
          -30 -487 -35 callsubr
        </CharString>
        <CharString name="B">
          0 100 7 callsubr
          -622 424 -46 callsubr
          182 vlineto
          31 -15 14 -26 4 vhcurveto
          26 2 15 19 31 vvcurveto
          181 -84 callsubr
          -7 -533 rmoveto
          -25 -4 callsubr
          -297 223 298 -56 callgsubr
          121 vmoveto
          -97 callgsubr
          -298 222 298 -56 callgsubr
          endchar
        </CharString>
        <CharString name="C">
          -49 584 413 -14 callsubr
        </CharString>
        <CharString name="CR">
          -419 endchar
        </CharString>
        <CharString name="Cacute">
          -49 540 813 35 callsubr
          206 -257 -14 callsubr
        </CharString>
        <CharString name="Ccaron">
          -49 390 669 -7 callgsubr
          294 -256 -14 callsubr
        </CharString>
        <CharString name="Ccedilla">
          -49 288 150 callgsubr
          296 463 -14 callsubr
        </CharString>
        <CharString name="D">
          2 517 194 callsubr
          -298 504 298 -56 callgsubr
          -417 90 rmoveto
          -622 426 152 callsubr
        </CharString>
        <CharString name="Dcaron">
          2 390 669 -7 callgsubr
          227 -579 rmoveto
          -97 callgsubr
          -298 504 298 -56 callgsubr
          -417 90 rmoveto
          -622 426 152 callsubr
        </CharString>
        <CharString name="Dcroat">
          62 577 112 callsubr
        </CharString>
        <CharString name="E">
          -106 189 59 39 callsubr
        </CharString>
        <CharString name="Eacute">
          -106 533 812 35 callsubr
          -182 -610 39 callsubr
        </CharString>
        <CharString name="Ecaron">
          -106 380 669 -7 callgsubr
          -91 -380 rmoveto
          293 59 -293 215 334 59 -423 -622 437 59 -348 hlineto
          endchar
        </CharString>
        <CharString name="Ecircumflex">
          -106 318 770 rmoveto
          50 callsubr
          -166 -143 rlineto
          101 hlineto
          -14 -610 39 callsubr
        </CharString>
        <CharString name="Edieresis">
          -106 503 752 132 callsubr
          -260 83 132 callsubr
          -54 -610 39 callsubr
        </CharString>
        <CharString name="Edotaccent">
          -106 384 761 rmoveto
          -107 -91 107 hlineto
          -195 -611 39 callsubr
        </CharString>
        <CharString name="Egrave">
          -106 360 669 110 callgsubr
          -83 -610 39 callsubr
        </CharString>
        <CharString name="Emacron">
          -106 491 727 217 callgsubr
          -302 -610 39 callsubr
        </CharString>
        <CharString name="Eogonek">
          -106 392 240 callsubr
          148 -348 230 293 59 -293 215 334 59 -423 -622 354 234 callsubr
          hlineto
          endchar
        </CharString>
        <CharString name="Eth">
          20 535 112 callsubr
        </CharString>
        <CharString name="Euro">
          2 635 413 rmoveto
          130 260 callsubr
          -138 -101 -59 101 -69 -101 -59 101 -139 -100 callsubr
          336 -85 callgsubr
          130 -88 -119 -94 callgsubr
          -256 -103 callgsubr
          128 186 59 -186 69 186 59 -186 127 -107 callsubr
          256 -56 callgsubr
          -119 vlineto
          endchar
        </CharString>
        <CharString name="F">
          -139 524 563 rmoveto
          59 -424 -622 89 265 296 59 -296 239 vlineto
          endchar
        </CharString>
        <CharString name="G">
          -28 585 434 18 callsubr
        </CharString>
        <CharString name="Gbreve">
          -28 450 669 68 callgsubr
          372 -235 18 callsubr
        </CharString>
        <CharString name="H">
          51 556 7 callsubr
          -281 -368 281 -88 -622 88 282 368 -282 88 622 vlineto
          endchar
        </CharString>
        <CharString name="I">
          119 callsubr
          endchar
        </CharString>
        <CharString name="Iacute">
          119 callsubr
          -82 47 84 callsubr
          endchar
        </CharString>
        <CharString name="Icircumflex">
          119 callsubr
          -254 48 rmoveto
          101 hlineto
          115 101 50 callsubr
          endchar
        </CharString>
        <CharString name="Idieresis">
          119 callsubr
          -236 130 187 callgsubr
        </CharString>
        <CharString name="Idotaccent">
          265 callsubr
          -97 138 rmoveto
          -91 107 91 vlineto
          endchar
        </CharString>
        <CharString name="Igrave">
          119 callsubr
          -152 190 153 callsubr
        </CharString>
        <CharString name="Imacron">
          119 callsubr
          -212 47 231 callsubr
          endchar
        </CharString>
        <CharString name="Iogonek">
          -385 48 240 callsubr
          89 5 622 -88 -658 -87 hlineto
          69 callsubr
        </CharString>
        <CharString name="J">
          -102 40 218 rmoveto
          -139 -100 callsubr
          303 -85 callgsubr
          543 -88 -532 -94 callgsubr
          -223 -103 callgsubr
          128 vlineto
          endchar
        </CharString>
        <CharString name="K">
          -26 523 7 callsubr
          221 callgsubr
          -531 hmoveto
          -622 86 622 vlineto
          endchar
        </CharString>
        <CharString name="L">
          -154 187 59 187 callsubr
        </CharString>
        <CharString name="Lacute">
          -154 362 812 35 callsubr
          -13 -610 187 callsubr
        </CharString>
        <CharString name="Lcaron">
          -154 362 813 rmoveto
          -101 hlineto
          -115 -101 -115 101 rlineto
          -101 hlineto
          166 -143 rlineto
          100 hlineto
          -9 -611 187 callsubr
        </CharString>
        <CharString name="Lslash">
          -154 187 59 rmoveto
          220 vlineto
          169 57 rlineto
          60 vlineto
          -169 -56 rlineto
          282 -87 -312 vlineto
          -121 -40 rlineto
          -61 vlineto
          121 41 rlineto
          -250 409 59 vlineto
          endchar
        </CharString>
        <CharString name="M">
          169 467 135 rmoveto
          219 375 rlineto
          -510 76 622 -95 vlineto
          -241 -411 -231 411 rlineto
          -95 -622 76 510 hlineto
          211 -375 rlineto
          endchar
        </CharString>
        <CharString name="N">
          111 callgsubr
          endchar
        </CharString>
        <CharString name="NULL">
          -693 endchar
        </CharString>
        <CharString name="Nacute">
          26 332 667 84 callsubr
          67 -188 192 callgsubr
        </CharString>
        <CharString name="Ncaron">
          26 320 669 rmoveto
          100 hlineto
          166 143 rlineto
          -101 hlineto
          -115 -101 -115 101 rlineto
          -101 hlineto
          385 -190 192 callgsubr
        </CharString>
        <CharString name="Ntilde">
          111 callgsubr
          -374 127 rmoveto
          -12 callgsubr
          56 vlineto
          15 5 8 12 vhcurveto
          endchar
        </CharString>
        <CharString name="O">
          -28 575 543 38 callgsubr
        </CharString>
        <CharString name="OE">
          262 491 194 callsubr
          -252 -103 callgsubr
          442 -107 callsubr
          252 -56 callgsubr
          92 -473 rmoveto
          230 268 59 -268 215 300 59 -372 -17 vlineto
          11 -13 -19 6 -26 hhcurveto
          -284 hlineto
          0 callsubr
          284 hlineto
          26 19 6 11 13 hvcurveto
          -17 384 59 vlineto
          endchar
        </CharString>
        <CharString name="Oacute">
          -28 300 669 84 callsubr
          135 -269 38 callgsubr
        </CharString>
        <CharString name="Ocircumflex">
          -28 117 669 rmoveto
          101 hlineto
          115 101 50 callsubr
          292 -269 38 callgsubr
        </CharString>
        <CharString name="Odieresis">
          -28 575 543 -43 callgsubr
          -86 220 153 callgsubr
        </CharString>
        <CharString name="Ograve">
          -28 575 543 -43 callgsubr
          -249 280 153 callsubr
        </CharString>
        <CharString name="Ohungarumlaut">
          -28 169 622 rmoveto
          0 callsubr
          327 256 callsubr
          -7 -90 rmoveto
          -442 -94 callgsubr
          -250 -103 callgsubr
          442 -107 callsubr
          250 -56 callgsubr
          -137 300 rmoveto
          98 callgsubr
          110 hmoveto
          98 callgsubr
          endchar
        </CharString>
        <CharString name="Omacron">
          -28 162 670 231 callsubr
          413 -185 38 callgsubr
        </CharString>
        <CharString name="Oslash">
          9 517 87 rmoveto
          -26 -5 -5 -27 vhcurveto
          -270 hlineto
          -2 hlineto
          304 445 rlineto
          -333 34 rmoveto
          -106 callsubr
          270 hlineto
          5 hlineto
          -306 -446 rlineto
          431 524 rmoveto
          -72 hlineto
          -15 -22 rlineto
          -5 hlineto
          -344 hlineto
          -103 callsubr
          -464 vlineto
          -25 6 -19 11 -13 vhcurveto
          -30 -44 rlineto
          73 hlineto
          15 22 rlineto
          4 hlineto
          344 -85 callgsubr
          464 vlineto
          25 -6 19 -11 13 vhcurveto
          endchar
        </CharString>
        <CharString name="Otilde">
          -28 575 543 -43 callgsubr
          -274 217 rmoveto
          -12 callgsubr
          56 vlineto
          15 5 8 12 vhcurveto
          endchar
        </CharString>
        <CharString name="P">
          -27 520 293 rmoveto
          -97 callgsubr
          -302 301 302 -56 callgsubr
          -420 90 rmoveto
          -622 87 203 340 -46 callsubr
          261 225 callgsubr
        </CharString>
        <CharString name="Q">
          -68 469 194 callsubr
          -250 -103 callgsubr
          442 -107 callsubr
          250 -56 callgsubr
          86 11 rmoveto
          -78 callgsubr
          -327 hlineto
          0 callsubr
          183 hlineto
          113 -97 rlineto
          109 hlineto
          -115 97 rlineto
          37 -85 callgsubr
          endchar
        </CharString>
        <CharString name="R">
          -6 187 563 45 callsubr
        </CharString>
        <CharString name="Racute">
          -6 550 810 35 callsubr
          -201 -104 45 callsubr
        </CharString>
        <CharString name="Rcaron">
          -6 400 667 -7 callgsubr
          -113 -104 45 callsubr
        </CharString>
        <CharString name="S">
          -45 481 90 60 callgsubr
        </CharString>
        <CharString name="Sacute">
          -45 290 667 84 callsubr
          51 56 callsubr
        </CharString>
        <CharString name="Scaron">
          -45 280 667 rmoveto
          100 hlineto
          166 143 rlineto
          -101 hlineto
          -115 -101 -115 101 rlineto
          -101 hlineto
          367 56 callsubr
        </CharString>
        <CharString name="T">
          -128 555 7 callsubr
          -545 242 callsubr
          hlineto
          endchar
        </CharString>
        <CharString name="Tcaron">
          -128 335 667 -7 callgsubr
          320 -45 rmoveto
          -545 242 callsubr
          hlineto
          endchar
        </CharString>
        <CharString name="Thorn">
          -27 510 192 rmoveto
          -97 callgsubr
          -292 300 292 -56 callgsubr
          -323 90 rmoveto
          102 -87 -622 87 102 330 -46 callsubr
          260 225 callgsubr
        </CharString>
        <CharString name="U">
          -10 177 622 85 callsubr
        </CharString>
        <CharString name="Uacute">
          -10 303 669 84 callsubr
          -266 -190 85 callsubr
        </CharString>
        <CharString name="Ucircumflex">
          -10 123 669 rmoveto
          101 hlineto
          115 101 50 callsubr
          -112 -190 85 callsubr
        </CharString>
        <CharString name="Udieresis">
          -10 507 7 callsubr
          48 callgsubr
          532 -87 -543 vlineto
          119 callgsubr
          543 vlineto
          -448 130 187 callgsubr
        </CharString>
        <CharString name="Ugrave">
          -10 177 622 -13 callsubr
          81 722 153 callsubr
        </CharString>
        <CharString name="Uhungarumlaut">
          -10 177 622 -13 callsubr
          382 740 rmoveto
          98 callgsubr
          -310 hmoveto
          98 callgsubr
          endchar
        </CharString>
        <CharString name="Umacron">
          -10 177 622 -13 callsubr
          -11 579 231 callsubr
          endchar
        </CharString>
        <CharString name="Uogonek">
          -10 507 7 callsubr
          48 callgsubr
          532 -87 -543 -100 callsubr
          128 162 callsubr
          134 -85 callgsubr
          543 vlineto
          endchar
        </CharString>
        <CharString name="Uring">
          -10 501 775 105 callsubr
          -263 -144 85 callsubr
        </CharString>
        <CharString name="V">
          -5 563 7 callsubr
          -220 -562 -217 562 rlineto
          -88 hlineto
          242 -622 rlineto
          127 hlineto
          243 622 rlineto
          endchar
        </CharString>
        <CharString name="W">
          356 924 7 callsubr
          -189 -561 -162 561 rlineto
          -98 hlineto
          -163 -561 -185 561 rlineto
          -88 hlineto
          211 -622 rlineto
          122 hlineto
          152 521 152 -521 rlineto
          122 hlineto
          212 622 rlineto
          endchar
        </CharString>
        <CharString name="X">
          -26 386 319 rmoveto
          234 303 rlineto
          -97 hlineto
          -189 -246 -191 246 rlineto
          -98 hlineto
          238 -305 -248 -317 rlineto
          97 hlineto
          202 260 200 -260 rlineto
          98 hlineto
          endchar
        </CharString>
        <CharString name="Y">
          -63 621 622 124 callsubr
        </CharString>
        <CharString name="Yacute">
          -63 547 812 35 callsubr
          236 -47 124 callsubr
        </CharString>
        <CharString name="Ydieresis">
          -63 251 752 132 callsubr
          260 83 132 callsubr
          110 -47 124 callsubr
        </CharString>
        <CharString name="Z">
          -65 568 622 127 callgsubr
        </CharString>
        <CharString name="Zacute">
          -65 540 812 35 callsubr
          190 124 callgsubr
        </CharString>
        <CharString name="Zcaron">
          -65 370 669 -7 callgsubr
          298 124 callgsubr
        </CharString>
        <CharString name="Zdotaccent">
          -65 383 760 rmoveto
          -107 -91 107 hlineto
          185 124 callgsubr
        </CharString>
        <CharString name="a">
          -66 197 59 -69 callgsubr
        </CharString>
        <CharString name="aacute">
          -66 520 675 35 callsubr
          -161 -473 -69 callgsubr
        </CharString>
        <CharString name="abreve">
          -66 428 532 68 callgsubr
          6 -473 -69 callgsubr
        </CharString>
        <CharString name="acircumflex">
          -66 310 633 rmoveto
          50 callsubr
          -166 -143 rlineto
          101 hlineto
          2 -473 -69 callgsubr
        </CharString>
        <CharString name="acute">
          -93 170 506 84 callsubr
          endchar
        </CharString>
        <CharString name="adieresis">
          -66 504 615 132 callsubr
          -260 83 132 callsubr
          -47 -473 -69 callgsubr
        </CharString>
        <CharString name="ae">
          271 197 59 41 callsubr
          68 vlineto
          264 58 rlineto
          -127 vlineto
          -23 -11 -7 -22 vhcurveto
          371 367 rmoveto
          -99 callsubr
          -117 -283 129 callgsubr
          -31 -207 rmoveto
          368 187 hlineto
          -78 callgsubr
          -272 hlineto
          266 callsubr
          -248 hlineto
          116 callsubr
          86 273 callgsubr
          200 hlineto
          22 11 -7 -23 hvcurveto
          -118 vlineto
          -350 -78 rlineto
          -121 -100 callsubr
          248 hlineto
          39 20 19 19 6 hvcurveto
          -19 5 20 -19 36 hhcurveto
          269 51 callgsubr
          -218 -103 callgsubr
          endchar
        </CharString>
        <CharString name="agrave">
          -66 359 532 110 callgsubr
          -74 -473 -69 callgsubr
        </CharString>
        <CharString name="amacron">
          -66 473 590 217 callgsubr
          -276 -473 -69 callgsubr
        </CharString>
        <CharString name="ampersand">
          143 196 59 41 callsubr
          56 vlineto
          33 9 17 35 13 vhcurveto
          123 45 236 -195 rlineto
          -229 280 rmoveto
          -58 48 -32 19 47 vvcurveto
          79 -107 callsubr
          221 -56 callgsubr
          -81 vlineto
          -42 -15 -19 -44 -16 vhcurveto
          -122 -45 rlineto
          448 -374 rmoveto
          -63 52 rlineto
          27 12 13 24 38 vvcurveto
          145 -70 -136 -94 callgsubr
          -1 hlineto
          -266 223 131 48 rlineto
          55 20 23 33 71 vvcurveto
          89 -84 callsubr
          -295 hlineto
          -103 callsubr
          -102 vlineto
          -57 42 -27 53 -43 vhcurveto
          16 -13 -128 -47 rlineto
          -49 -18 -18 -22 -52 vvcurveto
          -83 -100 callsubr
          480 hlineto
          55 -45 rlineto
          endchar
        </CharString>
        <CharString name="aogonek">
          167 callgsubr
          -28 -232 rmoveto
          251 callgsubr
          3 485 -86 -32 hlineto
          -50 callsubr
          -68 -87 vlineto
          69 callsubr
        </CharString>
        <CharString name="approxequal">
          84 218 203 rmoveto
          68 callsubr
          220 vmoveto
          68 callsubr
          endchar
        </CharString>
        <CharString name="aring">
          -66 215 628 42 callsubr
          -23 -473 -69 callgsubr
        </CharString>
        <CharString name="asciicircum">
          -46 272 668 rmoveto
          -214 -340 rlineto
          91 hlineto
          175 283 174 -283 rlineto
          91 hlineto
          -214 340 rlineto
          endchar
        </CharString>
        <CharString name="asciitilde">
          84 218 273 rmoveto
          68 callsubr
          endchar
        </CharString>
        <CharString name="asterisk">
          -239 191 649 rmoveto
          -65 vlineto
          -24 3 -21 4 -16 vhcurveto
          -15 9 -19 9 -23 8 -61 20 rcurveline
          -23 -70 62 -20 20 -6 20 -5 20 -1 rlinecurve
          -13 -11 -15 -15 -14 -20 -38 -52 rcurveline
          59 -43 38 52 14 20 10 19 6 15 rlinecurve
          7 -15 10 -19 14 -20 38 -53 rcurveline
          59 43 -38 52 -14 20 -15 15 -12 11 rlinecurve
          16 1 21 3 23 8 62 20 rcurveline
          -22 70 -62 -21 -23 -8 -19 -9 -14 -9 rlinecurve
          4 17 3 21 25 vvcurveto
          65 vlineto
          endchar
        </CharString>
        <CharString name="at">
          409 408 426 rmoveto
          -52 -25 -25 -52 hvcurveto
          -194 vlineto
          -52 25 -25 52 vhcurveto
          190 hlineto
          31 26 12 34 4 hvcurveto
          -65 286 vlineto
          52 25 25 52 hvcurveto
          350 vlineto
          52 -25 25 -52 vhcurveto
          -778 hlineto
          -52 -25 -25 -52 hvcurveto
          -481 vlineto
          -52 25 -25 52 vhcurveto
          717 61 -682 hlineto
          -26 -5 5 25 hvcurveto
          452 vlineto
          25 5 6 26 vhcurveto
          710 hlineto
          25 5 -6 -25 hvcurveto
          -323 vlineto
          -25 -5 -5 -25 vhcurveto
          -179 308 -81 -33 hlineto
          23 -8 -20 10 -26 hhcurveto
          -186 -89 rmoveto
          25 5 5 25 vhcurveto
          177 hlineto
          23 10 -9 -25 hvcurveto
          -162 vlineto
          -26 -10 -8 -23 vhcurveto
          -177 hlineto
          -25 -5 5 25 hvcurveto
          endchar
        </CharString>
        <CharString name="atilde">
          -66 179 589 rmoveto
          15 5 8 12 vhcurveto
          -12 callgsubr
          vlineto
          18 -474 -69 callgsubr
        </CharString>
        <CharString name="b">
          -66 461 194 callsubr
          -219 hlineto
          -24 -10 9 26 hvcurveto
          24 -1 239 1 34 233 callsubr
          -29 -19 -10 -25 -8 hvcurveto
          219 -86 -669 86 35 vlineto
          -25 8 19 -10 29 hhcurveto
          236 249 callgsubr
        </CharString>
        <CharString name="backslash">
          -317 -91 699 rmoveto
          411 -835 rlineto
          87 hlineto
          -411 835 rlineto
          endchar
        </CharString>
        <CharString name="bar">
          -409 100 728 rmoveto
          -835 84 835 vlineto
          endchar
        </CharString>
        <CharString name="braceleft">
          -290 273 619 rmoveto
          29 8 13 30 vhcurveto
          132 59 -165 hlineto
          -69 -22 -32 -62 hvcurveto
          -236 vlineto
          -79 -27 -34 -62 vhcurveto
          -18 -59 18 hlineto
          62 27 -34 -78 hvcurveto
          -233 vlineto
          -62 22 -32 69 vhcurveto
          165 59 -132 hlineto
          -30 -8 13 29 hvcurveto
          247 vlineto
          68 -25 46 -52 6 vhcurveto
          52 6 25 45 70 vvcurveto
          endchar
        </CharString>
        <CharString name="braceright">
          -290 130 368 rmoveto
          -70 25 -45 52 -6 vhcurveto
          -52 -6 -25 -46 -68 vvcurveto
          -247 vlineto
          -29 -8 -13 -30 vhcurveto
          -132 -59 165 hlineto
          69 22 32 62 hvcurveto
          233 vlineto
          78 27 34 62 vhcurveto
          18 59 -18 hlineto
          -62 -27 34 79 hvcurveto
          236 vlineto
          62 -22 32 -69 vhcurveto
          -165 -59 132 hlineto
          30 8 -13 -29 hvcurveto
          endchar
        </CharString>
        <CharString name="bracketleft">
          -376 357 661 rmoveto
          59 -257 -940 257 59 -169 822 vlineto
          endchar
        </CharString>
        <CharString name="bracketright">
          -376 217 720 rmoveto
          -257 -59 169 -822 -169 -59 257 hlineto
          endchar
        </CharString>
        <CharString name="breve">
          -93 418 644 rmoveto
          -51 -94 callgsubr
          -175 -103 callgsubr
          51 -79 -59 123 callsubr
          268 callsubr
          vlineto
          endchar
        </CharString>
        <CharString name="brokenbar">
          -429 90 248 rmoveto
          -355 84 355 vlineto
          125 vmoveto
          355 -84 -355 vlineto
          endchar
        </CharString>
        <CharString name="bullet">
          -263 215 449 rmoveto
          -74 -61 -58 -71 -71 61 -58 74 75 60 58 71 71 -60 58 -75 hvcurveto
          endchar
        </CharString>
        <CharString name="c">
          -107 526 327 -7 callsubr
        </CharString>
        <CharString name="cacute">
          -107 521 675 35 callsubr
          167 -205 -7 callsubr
        </CharString>
        <CharString name="caron">
          -93 250 506 rmoveto
          100 hlineto
          166 143 rlineto
          -101 hlineto
          -115 -101 -115 101 rlineto
          -101 hlineto
          endchar
        </CharString>
        <CharString name="ccaron">
          -107 350 532 -7 callgsubr
          276 -205 -7 callsubr
        </CharString>
        <CharString name="ccedilla">
          -107 259 150 callgsubr
          267 377 -7 callsubr
        </CharString>
        <CharString name="cedilla">
          -93 337 150 callgsubr
          endchar
        </CharString>
        <CharString name="cent">
          -107 526 327 rmoveto
          79 -84 callsubr
          -106 76 -83 -76 -99 hlineto
          -17 callsubr
          99 -76 83 76 106 13 callsubr
        </CharString>
        <CharString name="circumflex">
          -93 84 506 rmoveto
          101 hlineto
          115 101 50 callsubr
          endchar
        </CharString>
        <CharString name="colon">
          -474 60 34 rmoveto
          99 115 -99 hlineto
          187 vmoveto
          99 115 -99 hlineto
          endchar
        </CharString>
        <CharString name="comma">
          -484 60 -137 rmoveto
          33 hlineto
          66 193 rlineto
          62 -99 vlineto
          endchar
        </CharString>
        <CharString name="commaaccent">
          -93 252 -219 141 callgsubr
        </CharString>
        <CharString name="copyright">
          351 954 342 rmoveto
          184 -64 96 -158 vhcurveto
          -420 hlineto
          -158 -64 -96 -184 hvcurveto
          -70 vlineto
          -184 64 -88 158 vhcurveto
          420 hlineto
          158 64 88 184 hvcurveto
          -636 -212 rmoveto
          -115 -33 88 122 hvcurveto
          74 vlineto
          122 33 98 115 vhcurveto
          408 hlineto
          115 33 -98 -122 hvcurveto
          -74 vlineto
          -122 -33 -88 -115 vhcurveto
          -88 180 rmoveto
          -97 callgsubr
          -168 -103 callgsubr
          154 -107 callsubr
          145 callgsubr
          -26 78 37 -84 callsubr
          -229 hlineto
          -103 callsubr
          -176 -100 callsubr
          229 -85 callgsubr
          37 -78 vlineto
          endchar
        </CharString>
        <CharString name="currency">
          18 230 170 rmoveto
          -33 -8 5 33 hvcurveto
          179 vlineto
          33 8 7 33 vhcurveto
          259 hlineto
          32 9 -7 -33 hvcurveto
          -179 vlineto
          -33 -9 -5 -32 vhcurveto
          119 228 rmoveto
          16 -2 14 -5 12 vhcurveto
          44 43 -54 54 -53 -53 rlineto
          1 -7 -8 1 -9 hhcurveto
          -310 hlineto
          -11 -10 -1 -1 -9 hvcurveto
          -54 53 -54 -54 49 -48 rlineto
          -3 -11 -2 -12 -14 vvcurveto
          -199 vlineto
          -13 2 -12 3 -11 vhcurveto
          -49 -48 54 -53 53 52 rlineto
          -2 9 11 -1 11 hhcurveto
          310 hlineto
          9 8 1 1 8 hvcurveto
          52 -51 54 53 -43 43 rlineto
          4 12 2 13 16 vvcurveto
          endchar
        </CharString>
        <CharString name="d">
          167 callgsubr
          34 610 rmoveto
          -216 vlineto
          164 callgsubr
          vlineto
          endchar
        </CharString>
        <CharString name="dagger">
          -97 506 460 rmoveto
          -164 162 -87 -162 -165 -59 165 -514 87 514 164 hlineto
          endchar
        </CharString>
        <CharString name="daggerdbl">
          -97 506 397 rmoveto
          59 -164 166 -87 -166 -165 -59 165 -326 -165 -59 165 -167 87 167 164 59 -164 326 vlineto
          endchar
        </CharString>
        <CharString name="danda">
          -264 200 hmoveto
          89 622 -89 hlineto
          endchar
        </CharString>
        <CharString name="dcaron">
          -66 451 453 rmoveto
          164 callgsubr
          -86 vlineto
          181 hmoveto
          242 callgsubr
          -531 -610 6 callsubr
          220 hlineto
          24 10 -9 -26 hvcurveto
          -297 196 callgsubr
          endchar
        </CharString>
        <CharString name="dcroat">
          167 callgsubr
          188 540 rmoveto
          -68 70 -86 -70 -265 -59 265 -87 hlineto
          -50 callsubr
          -32 86 540 68 vlineto
          endchar
        </CharString>
        <CharString name="degree">
          -146 487 545 rmoveto
          52 -25 25 -52 vhcurveto
          -273 hlineto
          -52 -25 -25 -52 hvcurveto
          -131 vlineto
          -52 25 -25 52 vhcurveto
          273 hlineto
          52 25 25 52 hvcurveto
          -80 10 rmoveto
          -97 callgsubr
          -204 -103 callgsubr
          112 vlineto
          25 -102 callsubr
          204 hlineto
          26 5 -5 -25 hvcurveto
          endchar
        </CharString>
        <CharString name="dieresis">
          -93 368 625 153 callgsubr
        </CharString>
        <CharString name="divide">
          270 callsubr
          216 159 rmoveto
          -82 88 82 vlineto
          -88 -304 rmoveto
          -82 88 82 vlineto
          endchar
        </CharString>
        <CharString name="dollar">
          -47 197 343 41 callsubr
          158 -107 callsubr
          247 -56 callgsubr
          -88 88 99 -84 callsubr
          -123 92 -83 -92 -121 hlineto
          -103 callsubr
          -180 -100 callsubr
          291 80 callsubr
          -94 callgsubr
          -249 -103 callgsubr
          88 -88 -99 -100 callsubr
          119 -91 83 91 126 -85 callgsubr
          185 225 callgsubr
        </CharString>
        <CharString name="dotaccent">
          -93 246 534 rmoveto
          107 91 -107 hlineto
          endchar
        </CharString>
        <CharString name="dotlessi">
          265 callsubr
          endchar
        </CharString>
        <CharString name="dottedcircle">
          -33 139 517 rmoveto
          -26 18 -19 26 26 18 19 26 25 -18 19 -26 -26 -18 -19 -25 vhcurveto
          -82 -110 rmoveto
          -25 20 -19 26 24 20 19 25 25 -20 19 -24 -26 -20 -19 -25 vhcurveto
          -13 -126 rmoveto
          -25 19 -18 25 26 18 18 278 callsubr
          52 -116 rmoveto
          -26 18 -18 26 25 19 18 26 25 -19 19 -25 -26 -18 -19 -25 vhcurveto
          101 -75 rmoveto
          -26 19 -20 26 25 19 20 26 24 -19 20 -25 -26 -19 -20 -24 vhcurveto
          127 -16 rmoveto
          -26 18 -18 26 26 19 18 26 26 -19 18 -26 -26 -18 -18 -26 vhcurveto
          121 53 rmoveto
          -26 19 -18 25 25 20 18 26 25 -20 19 -25 -25 -19 -19 -25 vhcurveto
          73 98 rmoveto
          -25 19 -19 26 24 19 19 25 26 -19 19 -24 -26 -19 -19 -26 vhcurveto
          10 134 rmoveto
          -26 18 -18 26 25 19 18 26 26 -19 18 -25 -26 -18 -18 -26 vhcurveto
          -50 118 rmoveto
          -25 19 -19 25 26 18 19 278 callsubr
          -95 68 rmoveto
          -24 19 -20 26 25 18 20 24 26 -18 19 -25 -26 -19 -19 -26 vhcurveto
          -126 15 rmoveto
          -26 18 -18 26 26 18 18 26 26 -18 18 -26 -26 -18 -18 -26 vhcurveto
          endchar
        </CharString>
        <CharString name="doubledanda">
          105 200 hmoveto
          89 622 -89 hlineto
          369 -622 rmoveto
          89 622 -89 hlineto
          endchar
        </CharString>
        <CharString name="dvA">
          371 1084 7 callsubr
          -249 -51 callgsubr
          160 vlineto
          endchar
        </CharString>
        <CharString name="dvAA">
          720 1433 7 callsubr
          -598 -51 callgsubr
          260 -563 17 callsubr
        </CharString>
        <CharString name="dvAI">
          100 813 7 callsubr
          -139 138 callgsubr
          -604 32 callgsubr
        </CharString>
        <CharString name="dvAU">
          770 1483 7 callsubr
          -161 82 callgsubr
          -330 -51 callgsubr
          250 -563 17 callsubr
        </CharString>
        <CharString name="dvAbbreviationsign">
          -31 484 218 rmoveto
          -97 callgsubr
          -243 -36 callgsubr
          126 vlineto
          26 6 5 264 callsubr
          88 rmoveto
          -103 callsubr
          -144 -100 callsubr
          305 hlineto
          53 25 -76 callgsubr
          144 -53 callsubr
          endchar
        </CharString>
        <CharString name="dvAcandra">
          371 1084 7 callsubr
          -249 -51 callgsubr
          160 vlineto
          -49 289 rmoveto
          30 callgsubr
          222 callsubr
          vlineto
          endchar
        </CharString>
        <CharString name="dvAnusvara">
          -693 -231 687 264 callgsubr
          endchar
        </CharString>
        <CharString name="dvAnusvara.amI">
          -693 89 687 264 callgsubr
          endchar
        </CharString>
        <CharString name="dvAvagraha">
          15 236 367 rmoveto
          -23 callsubr
          134 vlineto
          26 6 -91 callsubr
          362 59 -404 223 callgsubr
          -157 139 callsubr
          289 hlineto
          26 5 -6 -26 hvcurveto
          -186 -94 callgsubr
          -244 hlineto
          -26 -6 6 26 hvcurveto
          94 -88 -105 vlineto
          -53 25 -27 53 vhcurveto
          327 -85 callgsubr
          209 225 callgsubr
        </CharString>
        <CharString name="dvB">
          -218 562 7 callsubr
          -582 -59 582 hlineto
          -345 -426 rmoveto
          42 callgsubr
          122 41 callgsubr
          424 -255 rlineto
          -390 289 rmoveto
          -26 callsubr
          456 96 hlineto
          endchar
        </CharString>
        <CharString name="dvBA">
          139 217 199 callgsubr
          283 46 callgsubr
          -872 -59 623 -251 hlineto
          130 callsubr
        </CharString>
        <CharString name="dvBH">
          23 534 167 -41 callgsubr
          364 59 rmoveto
          -275 174 hlineto
          -30 callgsubr
          275 vlineto
          endchar
        </CharString>
        <CharString name="dvBHA">
          388 534 167 -41 callgsubr
          567 312 rmoveto
          -248 -253 -230 174 hlineto
          -30 callgsubr
          230 -310 88 -18 callsubr
          vlineto
          endchar
        </CharString>
        <CharString name="dvBH_LA">
          1197 534 167 -41 callgsubr
          1376 312 rmoveto
          -1182 -59 933 198 callsubr
          -37 -245 174 vlineto
          -30 callgsubr
          245 -231 -71 callsubr
        </CharString>
        <CharString name="dvBH_NA">
          1109 1256 168 rmoveto
          -97 callgsubr
          -266 hlineto
          252 callgsubr
          hlineto
          -722 -259 -41 callgsubr
          1288 312 rmoveto
          -1092 -59 843 -78 128 callgsubr
          -37 -217 174 vlineto
          -30 callgsubr
          217 -153 -8 callgsubr
        </CharString>
        <CharString name="dvBH_R">
          23 571 -57 rmoveto
          111 hlineto
          189 186 -13 84 rlineto
          -324 -46 -41 callgsubr
          89 59 rmoveto
          174 vlineto
          -30 callgsubr
          255 59 vlineto
          endchar
        </CharString>
        <CharString name="dvBH_RA">
          389 534 167 -41 callgsubr
          568 312 rmoveto
          -249 -253 -230 174 hlineto
          -30 callgsubr
          230 -101 72 callsubr
          -4 -54 272 callsubr
        </CharString>
        <CharString name="dvBH_R_YA">
          1031 1496 176 -104 callgsubr
          -1272 -375 rmoveto
          42 callgsubr
          117 45 callgsubr
          -148 hlineto
          -25 211 callgsubr
          1253 434 rmoveto
          -1003 -59 415 hlineto
          -22 callsubr
          -228 hlineto
          39 -6 -26 19 -45 hhcurveto
          -240 117 hlineto
          22 callgsubr
          -68 89 57 -107 callsubr
          264 85 callgsubr
          -336 104 callsubr
          173 callgsubr
          346 -85 callgsubr
          159 199 vlineto
          -99 callsubr
          -179 vlineto
          -8 1 -7 1 -6 vhcurveto
          -254 -223 232 callsubr
          190 168 rlineto
          -2 9 10 -1 11 227 callsubr
        </CharString>
        <CharString name="dvBH_VA">
          850 534 167 -41 callgsubr
          1029 312 rmoveto
          -831 -59 583 -392 hlineto
          -26 -8 -8 -73 callsubr
          -306 hlineto
          -103 callsubr
          -37 -257 174 vlineto
          -30 callgsubr
          257 -153 53 callsubr
        </CharString>
        <CharString name="dvBH_YA">
          1030 1495 176 -104 callgsubr
          -961 122 callgsubr
          1209 313 rmoveto
          -1013 71 callsubr
          -532 175 hlineto
          22 callgsubr
          -97 89 86 -107 callsubr
          264 -56 callgsubr
          -164 -336 104 callsubr
          -133 -100 callsubr
          346 -85 callgsubr
          152 217 -152 vlineto
          -85 callsubr
        </CharString>
        <CharString name="dvB_BA">
          652 730 199 callgsubr
          -865 hmoveto
          -22 callgsubr
          785 46 callgsubr
          -1385 -59 1136 226 callsubr
          -53 -26 -26 -53 hvcurveto
          -215 vlineto
          -396 25 callgsubr
          25 17 5 236 callsubr
          -5 24 hhcurveto
          392 31 callsubr
        </CharString>
        <CharString name="dvB_BHA">
          883 393 7 callsubr
          -413 -59 413 hlineto
          636 -396 -41 callgsubr
          -812 -173 rmoveto
          -22 callgsubr
          1016 485 142 callsubr
          -97 89 86 vlineto
          -11 callgsubr
          -100 49 callgsubr
          82 callsubr
        </CharString>
        <CharString name="dvB_BH_RA">
          864 373 7 callsubr
          -393 -59 393 hlineto
          636 -396 -41 callgsubr
          -792 -173 131 callgsubr
          1017 46 callgsubr
          -249 52 callgsubr
          -97 89 86 vlineto
          -11 callgsubr
          -100 151 callsubr
          346 86 callsubr
          230 -101 72 callsubr
          -4 -54 272 callsubr
        </CharString>
        <CharString name="dvB_DA">
          584 217 137 rmoveto
          -22 callgsubr
          547 289 255 callgsubr
          -1317 -59 1059 139 callgsubr
          -215 49 callgsubr
          3 callgsubr
        </CharString>
        <CharString name="dvB_DHA">
          850 415 7 callsubr
          -435 -59 435 hlineto
          -198 -426 rmoveto
          -22 callgsubr
          983 485 271 callsubr
          -547 -84 callgsubr
          -85 49 callgsubr
          590 -74 callgsubr
        </CharString>
        <CharString name="dvB_DH_VA">
          1228 486 7 callsubr
          -506 -59 506 hlineto
          -269 -426 131 callgsubr
          1381 46 callgsubr
          -748 -59 500 -392 hlineto
          -26 -8 -8 -73 callsubr
          -306 hlineto
          -103 callsubr
          -236 31 callgsubr
          -509 -84 callgsubr
          -86 151 callgsubr
          554 9 callsubr
        </CharString>
        <CharString name="dvB_JA">
          876 217 137 rmoveto
          -22 callgsubr
          1009 46 callgsubr
          -1609 -59 1360 150 callsubr
          -294 49 callgsubr
          8 callsubr
        </CharString>
        <CharString name="dvB_JHA">
          916 1381 331 rmoveto
          -642 hlineto
          63 callsubr
          220 hlineto
          -1164 -426 rmoveto
          -22 callgsubr
          1049 46 callgsubr
          -1649 -59 1093 -78 -375 hlineto
          -103 callsubr
          -56 vlineto
          -53 26 -25 53 vhcurveto
          343 hlineto
          26 6 -6 -26 hvcurveto
          -72 -29 callgsubr
          -338 53 -88 hlineto
          -398 236 rlineto
          -26 callsubr
          405 hlineto
          12 146 callgsubr
          -81 89 78 380 255 callsubr
          95 195 callgsubr
          221 -272 88 90 callsubr
        </CharString>
        <CharString name="dvB_J_YA">
          1516 217 137 131 callgsubr
          785 348 rmoveto
          -343 -317 hlineto
          76 callsubr
          -294 151 callsubr
          338 280 callgsubr
          vlineto
          636 -250 81 callsubr
          -2249 -59 1661 hlineto
          149 callsubr
        </CharString>
        <CharString name="dvB_JxA">
          857 795 -79 19 callgsubr
          -578 124 131 callgsubr
          1010 46 callgsubr
          -1590 -59 1341 150 callsubr
          -295 151 callgsubr
          8 callsubr
        </CharString>
        <CharString name="dvB_LA">
          943 217 137 rmoveto
          -22 callgsubr
          1076 46 callgsubr
          -1676 -59 1427 198 callsubr
          -215 vlineto
          37 callsubr
          12 146 callgsubr
          -2 -71 callsubr
        </CharString>
        <CharString name="dvB_L_YA">
          1568 217 137 131 callgsubr
          818 348 rmoveto
          -295 34 callgsubr
          -215 vlineto
          -377 235 143 callsubr
          12 146 callgsubr
          -2 -104 callsubr
          268 hlineto
          655 -250 -73 callgsubr
          -2301 -59 1713 hlineto
          -99 callgsubr
        </CharString>
        <CharString name="dvB_NA">
          883 1030 168 rmoveto
          -97 callgsubr
          -266 hlineto
          252 callgsubr
          hlineto
          -813 -289 rmoveto
          42 callgsubr
          120 41 callgsubr
          422 -247 rlineto
          -4 -5 -8 -2 -12 hhcurveto
          1016 46 callgsubr
          -1616 -59 1367 -78 128 callgsubr
          -213 vlineto
          -397 233 rlineto
          -26 callsubr
          405 -38 callgsubr
          -45 callsubr
        </CharString>
        <CharString name="dvB_R">
          -218 495 7 callsubr
          -515 -59 515 hlineto
          101 -420 rmoveto
          -379 23 callsubr
          109 41 callgsubr
          442 -242 rmoveto
          44 vlineto
          -408 239 rlineto
          75 callgsubr
          -243 -100 callsubr
          323 hlineto
          -124 -141 rlineto
          105 hlineto
          129 162 rlineto
          27 38 hlineto
          endchar
        </CharString>
        <CharString name="dvB_RA">
          139 569 143 rmoveto
          -352 23 callsubr
          112 41 callgsubr
          669 234 rmoveto
          -872 -59 623 226 callsubr
          -53 -26 -26 -53 hvcurveto
          176 callsubr
        </CharString>
        <CharString name="dvB_SA">
          897 1361 339 rmoveto
          -241 hlineto
          -74 callsubr
          249 hlineto
          -1144 -426 rmoveto
          -22 callgsubr
          1031 46 callgsubr
          -1631 -59 1021 hlineto
          -68 callsubr
          -298 137 -89 -285 hlineto
          37 callsubr
          12 146 callgsubr
          -2 4 callsubr
        </CharString>
        <CharString name="dvB_SHA">
          893 393 7 callsubr
          -413 -59 413 hlineto
          -176 -426 rmoveto
          -22 callgsubr
          112 485 57 callsubr
          -182 hlineto
          -396 25 callgsubr
          11 146 callgsubr
          -2 0 callgsubr
        </CharString>
        <CharString name="dvB_TA">
          608 217 137 rmoveto
          -22 callgsubr
          741 46 callgsubr
          -1341 -59 1092 -78 -379 hlineto
          -103 callsubr
          -215 vlineto
          37 callsubr
          12 146 callgsubr
          -2 -58 callsubr
        </CharString>
        <CharString name="dvB_VA">
          583 217 137 rmoveto
          -22 callgsubr
          716 46 callgsubr
          -1316 -59 1068 -392 hlineto
          -26 -8 -8 -73 callsubr
          -306 hlineto
          -103 callsubr
          -215 vlineto
          -396 25 callgsubr
          25 17 5 236 callsubr
          -5 24 229 callgsubr
        </CharString>
        <CharString name="dvB_YA">
          804 1269 176 -104 callgsubr
          -1052 -426 rmoveto
          -22 callgsubr
          937 46 callgsubr
          -1537 -59 949 63 callgsubr
          -177 hlineto
          48 callsubr
          539 hlineto
          18 12 4 11 7 hvcurveto
          -93 88 -18 callsubr
          vlineto
          endchar
        </CharString>
        <CharString name="dvC">
          -222 591 7 callsubr
          -611 -59 611 hlineto
          -351 -426 rmoveto
          -5 callgsubr
          425 59 hlineto
          endchar
        </CharString>
        <CharString name="dvCA">
          150 863 7 callsubr
          92 callgsubr
        </CharString>
        <CharString name="dvCH">
          368 1081 563 rmoveto
          59 -1101 -59 150 vlineto
          30 callsubr
          -177 vlineto
          -42 callsubr
          -179 -100 callsubr
          662 66 callsubr
          -325 -77 callsubr
          endchar
        </CharString>
        <CharString name="dvCHA">
          368 652 46 callgsubr
          -115 -77 callsubr
          411 hlineto
          429 hmoveto
          59 -1101 -59 150 vlineto
          30 callsubr
          -177 vlineto
          -42 callsubr
          -179 -100 callsubr
          662 66 callsubr
          -121 78 hlineto
          endchar
        </CharString>
        <CharString name="dvCH_RA">
          368 659 46 callgsubr
          -122 -77 callsubr
          418 hlineto
          422 hmoveto
          59 -1101 -59 150 vlineto
          30 callsubr
          -177 vlineto
          -42 callsubr
          -179 -100 callsubr
          280 3 callsubr
          250 66 callsubr
          -121 78 hlineto
          endchar
        </CharString>
        <CharString name="dvCH_R_YA">
          1318 1782 -12 callsubr
          -946 -77 callsubr
          1541 232 callgsubr
          -2051 -59 150 231 callgsubr
          -177 vlineto
          -42 callsubr
          -179 -100 callsubr
          280 3 callsubr
          250 253 callsubr
          7 0 7 -1 6 vhcurveto
          502 -19 callgsubr
        </CharString>
        <CharString name="dvCH_YA">
          1332 1796 -12 callsubr
          -627 0 -8 hlineto
          -325 -77 callsubr
          1555 232 callgsubr
          -2065 -59 150 231 callgsubr
          -177 vlineto
          -42 callsubr
          -179 -100 callsubr
          662 253 callsubr
          7 0 7 -1 6 vhcurveto
          516 -19 callgsubr
        </CharString>
        <CharString name="dvC_CA">
          632 1345 7 callsubr
          -1365 -59 1117 -392 hlineto
          -26 -8 -8 -26 vhcurveto
          -341 hlineto
          190 callgsubr
          -229 31 callgsubr
          -328 9 callgsubr
          373 -38 callgsubr
          384 -74 callgsubr
        </CharString>
        <CharString name="dvC_CHA">
          858 1142 46 callgsubr
          -115 -77 callsubr
          411 hlineto
          429 hmoveto
          59 -1591 -59 640 vlineto
          30 callsubr
          -177 vlineto
          -42 callsubr
          -88 31 callgsubr
          -337 9 callgsubr
          382 hlineto
          12 146 callgsubr
          -2 -100 callsubr
          662 66 callsubr
          -121 78 hlineto
          endchar
        </CharString>
        <CharString name="dvC_CH_VA">
          858 1177 46 callgsubr
          -150 hlineto
          -103 callsubr
          -126 27 callsubr
          104 vlineto
          26 6 -91 callsubr
          253 -31 callgsubr
          -276 56 callgsubr
          130 -9 callsubr
          446 hlineto
          -268 -686 41 callsubr
          90 -107 callsubr
          269 -118 hlineto
          -47 callsubr
          427 686 rmoveto
          59 -1591 -59 640 vlineto
          30 callsubr
          -177 vlineto
          -42 callsubr
          -88 31 callgsubr
          -337 9 callgsubr
          382 hlineto
          13 11 1 3 9 hvcurveto
          -35 7 25 -18 44 hhcurveto
          110 231 callgsubr
          -106 139 callsubr
          277 -90 callsubr
          -48 81 250 93 -46 callsubr
          298 -84 callsubr
          -93 78 hlineto
          endchar
        </CharString>
        <CharString name="dvC_MA">
          871 1335 485 148 callgsubr
          -1604 -59 1036 -78 -336 hlineto
          -103 callsubr
          -248 vlineto
          209 callgsubr
          -328 9 callgsubr
          373 hlineto
          25 17 5 11 11 hvcurveto
          -11 13 18 205 callgsubr
        </CharString>
        <CharString name="dvC_NA">
          884 1031 8 callgsubr
          -1617 -59 1368 -78 -654 hlineto
          -53 -26 -26 -53 hvcurveto
          -236 vlineto
          -24 -8 -9 -26 vhcurveto
          -341 9 callgsubr
          386 -38 callgsubr
          -45 callsubr
        </CharString>
        <CharString name="dvC_R">
          -214 -20 563 rmoveto
          519 59 -519 hlineto
          56 -196 rmoveto
          189 callsubr
          169 162 rlineto
          37 40 -421 -103 callgsubr
          216 193 callsubr
          hlineto
          endchar
        </CharString>
        <CharString name="dvC_RA">
          150 863 7 callsubr
          -883 -59 635 -381 hlineto
          -47 callsubr
          -341 -103 callgsubr
          216 193 callsubr
          -59 189 callsubr
          160 153 rlineto
          -99 -83 callgsubr
        </CharString>
        <CharString name="dvC_YA">
          792 1257 176 -73 callgsubr
          -1525 -59 937 49 callsubr
          -328 9 callgsubr
          373 -5 callsubr
        </CharString>
        <CharString name="dvCandrabindu">
          -693 -262 685 rmoveto
          222 callsubr
          -83 30 callgsubr
          114 117 264 callgsubr
          endchar
        </CharString>
        <CharString name="dvD">
          70 497 -61 59 callsubr
          -608 683 rmoveto
          -59 545 51 callsubr
          393 137 170 59 hlineto
          endchar
        </CharString>
        <CharString name="dvDA">
          70 613 426 255 callgsubr
          -803 -59 545 51 callsubr
          endchar
        </CharString>
        <CharString name="dvDA_mvR">
          70 613 426 255 callgsubr
          -803 -59 545 139 callgsubr
          127 callsubr
          -175 vlineto
          177 callgsubr
          216 325 -89 -95 hlineto
          -26 -8 -8 -26 vhcurveto
          -280 -106 callgsubr
          endchar
        </CharString>
        <CharString name="dvDD">
          48 327 -61 59 callsubr
          191 487 269 callsubr
          -783 -59 541 -78 -327 vlineto
          -53 -25 -26 -53 hvcurveto
          -76 vlineto
          -53 25 -25 53 vhcurveto
          -63 callsubr
          endchar
        </CharString>
        <CharString name="dvDDA">
          50 609 426 269 callsubr
          -783 -59 541 -78 -327 vlineto
          -53 -25 -26 -53 hvcurveto
          -76 vlineto
          -53 25 -25 53 vhcurveto
          -63 callsubr
          endchar
        </CharString>
        <CharString name="dvDDH">
          96 342 -61 59 callsubr
          185 487 rmoveto
          137 191 59 -829 -59 549 -78 -330 vlineto
          -24 callgsubr
          endchar
        </CharString>
        <CharString name="dvDDHA">
          96 618 426 rmoveto
          137 191 59 -829 -59 549 -78 -330 vlineto
          -24 callgsubr
          endchar
        </CharString>
        <CharString name="dvDDH_DDHA">
          96 644 89 callsubr
          165 59 -829 -59 576 -78 -358 vlineto
          -53 -25 -27 -53 hvcurveto
          -182 vlineto
          -32 75 callsubr
          -31 vvcurveto
          -185 139 callsubr
          391 195 callsubr
          50 -84 callsubr
          -86 -62 48 hlineto
          26 5 -6 -25 hvcurveto
          -24 -94 callgsubr
          -310 -36 callgsubr
          162 vlineto
          25 6 6 26 vhcurveto
          348 195 callsubr
          49 -84 callsubr
          -86 -62 48 -56 callgsubr
          -23 -94 callgsubr
          -310 -36 callgsubr
          161 vlineto
          26 6 7 26 vhcurveto
          endchar
        </CharString>
        <CharString name="dvDDH_R">
          96 352 -201 59 callsubr
          175 627 185 callsubr
          151 224 callsubr
          132 60 callsubr
        </CharString>
        <CharString name="dvDDH_RA">
          96 618 426 185 callsubr
          139 3 callsubr
          121 60 callsubr
        </CharString>
        <CharString name="dvDDH_YA">
          1058 1522 -12 callsubr
          -605 78 904 232 callgsubr
          -1791 -59 549 -78 -330 hlineto
          -24 callgsubr
          942 -19 callgsubr
        </CharString>
        <CharString name="dvDDHxA">
          96 391 -157 19 callgsubr
          227 491 rmoveto
          137 191 59 -829 -59 549 -78 -330 vlineto
          -24 callgsubr
          endchar
        </CharString>
        <CharString name="dvDD_DDA">
          47 609 89 callsubr
          151 59 -780 -59 540 194 callgsubr
          -30 -100 callsubr
          318 -31 callgsubr
          -33 -29 callgsubr
          -273 -103 callgsubr
          28 -89 -44 103 callgsubr
          -23 -100 callsubr
          318 -31 callgsubr
          -36 -29 callgsubr
          -273 -36 callgsubr
          19 -88 -31 vlineto
          -53 26 -25 53 vhcurveto
          355 195 callsubr
          59 -84 callsubr
          -318 -103 callgsubr
          8 -107 callsubr
          315 237 callsubr
          57 vlineto
          53 -25 25 -53 vhcurveto
          -319 210 callsubr
          7 -107 callsubr
          endchar
        </CharString>
        <CharString name="dvDD_DDHA">
          48 609 89 callsubr
          152 59 -781 -59 540 194 callgsubr
          -34 vlineto
          -53 26 -25 53 vhcurveto
          319 hlineto
          26 6 -6 -26 hvcurveto
          -38 -29 callgsubr
          -274 -103 callgsubr
          28 -89 -40 vlineto
          -31 15 -16 26 -2 vhcurveto
          -4 vlineto
          -26 -1 -15 -15 -31 vvcurveto
          -175 vlineto
          -53 26 -25 53 vhcurveto
          350 195 callsubr
          57 -84 callsubr
          -88 -62 50 -56 callgsubr
          -31 -94 callgsubr
          -271 -103 callgsubr
          154 vlineto
          25 5 6 26 vhcurveto
          316 237 callsubr
          62 -53 callsubr
          -320 -103 callgsubr
          11 -107 callsubr
          endchar
        </CharString>
        <CharString name="dvDD_R">
          48 327 -200 59 callsubr
          191 626 269 callsubr
          -783 -59 541 125 callgsubr
          126 224 callsubr
          122 -23 callgsubr
          endchar
        </CharString>
        <CharString name="dvDD_RA">
          48 609 426 269 callsubr
          -783 -59 541 125 callgsubr
          114 3 callsubr
          111 -23 callgsubr
          endchar
        </CharString>
        <CharString name="dvDD_VA">
          48 237 -44 rmoveto
          -23 callsubr
          90 vlineto
          25 6 6 26 vhcurveto
          287 -118 hlineto
          -47 callsubr
          119 470 rmoveto
          137 152 59 -781 -59 540 194 callgsubr
          -46 -100 callsubr
          320 -56 callgsubr
          -52 -94 callgsubr
          -275 -36 callgsubr
          34 -88 -43 vlineto
          -31 15 -17 26 -2 vhcurveto
          -4 vlineto
          -26 -2 -15 -13 -32 vvcurveto
          -113 139 callsubr
          295 -90 callsubr
          -47 80 260 vlineto
          20 12 9 22 33 vvcurveto
          76 vlineto
          53 -25 25 -53 vhcurveto
          -320 210 callsubr
          23 -107 callsubr
          endchar
        </CharString>
        <CharString name="dvDD_YA">
          1013 1477 -12 callsubr
          -569 78 868 232 callgsubr
          -1746 -59 541 -78 -327 hlineto
          -53 -25 -26 -53 hvcurveto
          -76 vlineto
          -53 25 -25 53 vhcurveto
          -63 callsubr
          901 -19 callgsubr
        </CharString>
        <CharString name="dvDDxA">
          50 373 -157 19 callgsubr
          236 491 269 callsubr
          -783 -59 541 -78 -327 vlineto
          -53 -25 -26 -53 hvcurveto
          -76 vlineto
          -53 25 -25 53 vhcurveto
          -63 callsubr
          endchar
        </CharString>
        <CharString name="dvDH">
          -23 236 137 rmoveto
          -83 callsubr
          -119 vlineto
          -53 26 -26 53 vhcurveto
          667 59 hlineto
          endchar
        </CharString>
        <CharString name="dvDHA">
          352 1065 261 callsubr
          -547 -84 callgsubr
          -119 vlineto
          -53 26 -26 53 vhcurveto
          590 -74 callgsubr
        </CharString>
        <CharString name="dvDH_MA">
          1069 1533 485 148 callgsubr
          -1068 -59 500 -78 -336 hlineto
          -103 callsubr
          -236 31 callgsubr
          -529 -84 callgsubr
          -119 vlineto
          -53 26 -26 53 vhcurveto
          574 hlineto
          26 17 5 11 10 hvcurveto
          -11 13 19 205 callgsubr
        </CharString>
        <CharString name="dvDH_NA">
          1066 1213 8 callgsubr
          -1072 -59 823 -78 113 callsubr
          -527 -84 callgsubr
          -119 vlineto
          -53 26 -26 53 vhcurveto
          572 -38 callgsubr
          -45 callsubr
        </CharString>
        <CharString name="dvDH_N_YA">
          1709 1203 168 rmoveto
          -97 callgsubr
          -266 hlineto
          252 callgsubr
          hlineto
          318 hmoveto
          59 -655 vlineto
          -103 callsubr
          -236 31 callgsubr
          -517 -84 callgsubr
          -119 vlineto
          -53 26 -26 53 vhcurveto
          562 -38 callgsubr
          24 callgsubr
          25 -76 callgsubr
          269 vlineto
          884 -250 -73 callgsubr
          -1715 -59 1127 hlineto
          -99 callgsubr
        </CharString>
        <CharString name="dvDH_R">
          -12 236 148 41 callsubr
          100 -107 callsubr
          158 59 -158 210 callsubr
          131 -107 callsubr
          259 85 callgsubr
          81 117 -53 callsubr
          -334 hlineto
          -103 callsubr
          -155 vlineto
          -32 75 callsubr
          -31 vvcurveto
          -119 -100 callsubr
          500 hlineto
          -158 -143 rlineto
          117 hlineto
          167 158 rlineto
          31 44 hlineto
          endchar
        </CharString>
        <CharString name="dvDH_RA">
          352 1065 7 callsubr
          -248 -440 hlineto
          -47 callsubr
          -547 -103 callgsubr
          100 -107 callsubr
          158 59 -158 210 callsubr
          131 -107 callsubr
          259 85 callgsubr
          81 117 -53 callsubr
          -334 hlineto
          -103 callsubr
          -155 vlineto
          -32 75 callsubr
          -31 vvcurveto
          -119 -100 callsubr
          495 hlineto
          -158 -143 rlineto
          122 hlineto
          163 154 rlineto
          -100 -83 callgsubr
        </CharString>
        <CharString name="dvDH_VA">
          749 1462 7 callsubr
          -748 -59 500 -392 hlineto
          -26 -8 -8 -73 callsubr
          -306 hlineto
          -103 callsubr
          -236 31 callgsubr
          -509 -84 callgsubr
          -119 vlineto
          -53 26 -26 53 vhcurveto
          554 9 callsubr
        </CharString>
        <CharString name="dvDH_YA">
          989 1454 176 -73 callgsubr
          -999 -59 411 49 callsubr
          -529 -84 callgsubr
          -119 vlineto
          -53 26 -26 53 vhcurveto
          574 -5 callsubr
        </CharString>
        <CharString name="dvD_BA">
          84 495 41 rmoveto
          -264 210 callsubr
          21 vlineto
          43 -3 44 0 vhcurveto
          351 13 rmoveto
          -55 vlineto
          -22 0 -29 1 -17 vhcurveto
          -1 -4 0 -4 -1 -4 -283 135 rcurveline
          367 232 rmoveto
          137 166 59 -817 -59 563 -78 -350 vlineto
          -103 callsubr
          -130 vlineto
          -42 callsubr
          235 callsubr
          323 -90 callsubr
          -65 89 420 -89 -95 -314 vlineto
          218 callgsubr
          110 -107 callsubr
          endchar
        </CharString>
        <CharString name="dvD_BHA">
          278 821 426 255 callgsubr
          -1011 -59 753 139 callgsubr
          -209 -100 callsubr
          323 hlineto
          14 11 2 7 7 hvcurveto
          -127 89 266 -89 -55 -2 callsubr
          187 -107 callsubr
          -272 -245 rmoveto
          47 -18 29 -56 vhcurveto
          -57 -58 20 hlineto
          26 3 -9 -24 hvcurveto
          -229 82 63 502 59 -502 vlineto
          endchar
        </CharString>
        <CharString name="dvD_B_RA">
          88 522 32 rmoveto
          -287 -103 callgsubr
          15 vlineto
          56 -3 26 0 vhcurveto
          351 20 rmoveto
          -37 vlineto
          -45 2 -39 0 vhcurveto
          -311 121 rlineto
          392 220 callgsubr
          -145 250 callsubr
          -107 -100 callsubr
          247 hlineto
          -121 -120 rlineto
          104 hlineto
          125 132 rlineto
          -72 89 416 -89 -91 -314 vlineto
          -107 callgsubr
          102 vlineto
          26 5 28 26 vhcurveto
          endchar
        </CharString>
        <CharString name="dvD_DA">
          206 743 89 callsubr
          176 59 -939 -59 675 -78 -456 vlineto
          -103 callsubr
          -70 vlineto
          -32 75 callsubr
          -31 vvcurveto
          -106 -100 callsubr
          439 -90 callsubr
          -68 89 214 -89 -62 vlineto
          -47 callsubr
          -396 -103 callgsubr
          273 callgsubr
          213 59 -213 -103 callgsubr
          50 -107 callsubr
          endchar
        </CharString>
        <CharString name="dvD_DHA">
          298 143 126 rmoveto
          220 callsubr
          84 59 -120 hlineto
          154 callsubr
          698 337 255 callgsubr
          -1031 -59 773 139 callgsubr
          -194 vlineto
          135 callsubr
        </CharString>
        <CharString name="dvD_GA">
          168 callgsubr
          -86 hlineto
          -33 callgsubr
          -25 -59 64 -85 callgsubr
          97 180 vlineto
          -81 callgsubr
          -226 89 405 201 callgsubr
        </CharString>
        <CharString name="dvD_GHA">
          298 841 426 255 callgsubr
          -1031 -59 773 139 callgsubr
          -39 -191 vlineto
          154 callsubr
          37 vlineto
          220 callsubr
          155 -96 hlineto
          135 callsubr
        </CharString>
        <CharString name="dvD_G_RA">
          168 callgsubr
          -102 hlineto
          -33 callgsubr
          -25 -59 56 hlineto
          53 34 -76 callgsubr
          113 180 vlineto
          -81 callgsubr
          -69 vlineto
          -237 -218 rlineto
          114 hlineto
          86 78 rlineto
          24 22 18 19 0 0 -5 -39 -35 vvcurveto
          -56 89 477 201 callgsubr
        </CharString>
        <CharString name="dvD_MA">
          401 868 161 rmoveto
          -241 166 -89 -95 205 callsubr
          166 -107 callsubr
          393 137 251 hlineto
          246 59 rmoveto
          -1134 -59 549 -78 36 callsubr
          -188 -100 callsubr
          323 -90 callsubr
          -130 89 84 241 -135 86 596 -48 callsubr
        </CharString>
        <CharString name="dvD_NA">
          70 783 7 callsubr
          -803 238 callsubr
          -356 hlineto
          -103 callsubr
          -244 -100 callsubr
          323 -90 callsubr
          -84 -288 104 callsubr
          -51 88 39 vlineto
          26 6 -91 callsubr
          247 -90 89 376 -89 -59 205 callsubr
          222 -107 callsubr
          403 137 197 callgsubr
        </CharString>
        <CharString name="dvD_R">
          70 533 -112 59 callsubr
          -644 734 rmoveto
          -59 545 -78 -346 vlineto
          -53 -26 -26 -53 hvcurveto
          21 callgsubr
          393 137 170 59 hlineto
          endchar
        </CharString>
        <CharString name="dvD_RA">
          70 613 426 255 callgsubr
          -803 -59 545 -78 -346 vlineto
          -53 -26 -26 -53 hvcurveto
          21 callgsubr
          endchar
        </CharString>
        <CharString name="dvD_VA">
          88 552 200 callgsubr
          396 220 callgsubr
          110 callsubr
        </CharString>
        <CharString name="dvD_YA">
          296 760 143 rmoveto
          -47 callsubr
          -486 -103 callgsubr
          273 callgsubr
          183 59 -183 -103 callgsubr
          50 -107 callsubr
          300 137 220 232 callgsubr
          -1029 -59 472 -78 -253 hlineto
          -103 callsubr
          -70 vlineto
          -32 75 callsubr
          -31 vvcurveto
          -106 -100 callsubr
          529 -90 callsubr
          -68 89 572 -48 callsubr
        </CharString>
        <CharString name="dvE">
          100 813 7 callsubr
          -833 32 callgsubr
        </CharString>
        <CharString name="dvEcandra">
          100 569 685 rmoveto
          53 25 25 53 hvcurveto
          89 -83 30 callgsubr
          565 -63 rmoveto
          -833 32 callgsubr
        </CharString>
        <CharString name="dvEight">
          16 520 375 rmoveto
          -23 -7 -10 -24 vhcurveto
          -268 hlineto
          223 callsubr
          156 vlineto
          24 4 8 26 vhcurveto
          273 hlineto
          26 4 -8 -24 hvcurveto
          -440 vmoveto
          -26 -6 -6 -24 vhcurveto
          -273 hlineto
          -26 -4 8 24 hvcurveto
          159 vlineto
          23 7 10 24 vhcurveto
          271 hlineto
          24 7 -10 -23 hvcurveto
          87 294 rmoveto
          47 -22 31 -57 vhcurveto
          -349 hlineto
          -56 -22 -31 -47 hvcurveto
          -158 vlineto
          -46 12 -28 41 vhcurveto
          -4 vlineto
          -40 -13 -21 -46 hvcurveto
          -162 vlineto
          -48 22 -31 56 vhcurveto
          349 hlineto
          57 22 31 48 hvcurveto
          162 vlineto
          46 -13 21 -40 vhcurveto
          4 vlineto
          41 12 28 46 hvcurveto
          endchar
        </CharString>
        <CharString name="dvEyelash">
          -76 626 400 rmoveto
          -26 211 callgsubr
          -461 210 callsubr
          37 -89 -49 -100 callsubr
          543 -85 callgsubr
          49 -89 vlineto
          -646 185 rmoveto
          -59 735 59 vlineto
          endchar
        </CharString>
        <CharString name="dvEyelash_HA">
          325 879 89 callsubr
          159 59 -1058 -59 811 156 callsubr
          -38 -242 vlineto
          218 callgsubr
          37 -89 -49 -100 callsubr
          292 hlineto
          7 -9 11 -5 14 -1 rrcurveto
          -4 vlineto
          -26 -2 -15 -15 -32 vvcurveto
          -162 -31 callsubr
        </CharString>
        <CharString name="dvEyelash_YA">
          550 1015 176 -73 callgsubr
          -1283 -59 695 hlineto
          -22 callsubr
          -541 210 callsubr
          37 -89 -49 -100 callsubr
          267 -152 hlineto
          -85 callsubr
        </CharString>
        <CharString name="dvFive">
          39 206 391 rmoveto
          172 406 59 -494 -290 388 vlineto
          26 3 -8 -24 hvcurveto
          -209 vlineto
          -24 -3 -8 -26 vhcurveto
          -271 hlineto
          -25 -3 8 24 hvcurveto
          118 -89 -131 237 callgsubr
          349 hlineto
          57 21 31 48 hvcurveto
          234 vlineto
          48 -21 30 -57 vhcurveto
          endchar
        </CharString>
        <CharString name="dvFour">
          32 650 183 rmoveto
          -121 143 -84 -143 -271 hlineto
          213 439 rlineto
          -87 hlineto
          -220 -438 rlineto
          -60 365 -124 84 124 121 vlineto
          endchar
        </CharString>
        <CharString name="dvG">
          50 -10 callsubr
          229 46 callgsubr
          -783 -65 callsubr
          110 vlineto
          endchar
        </CharString>
        <CharString name="dvGA">
          418 207 137 99 callsubr
          -563 88 -18 callsubr
          vlineto
          endchar
        </CharString>
        <CharString name="dvGH">
          -175 240 137 168 callsubr
          399 59 -659 -59 149 hlineto
          20 callgsubr
          491 59 hlineto
          endchar
        </CharString>
        <CharString name="dvGHA">
          206 670 133 callsubr
          249 59 rmoveto
          -939 -59 149 hlineto
          20 callgsubr
          439 31 callsubr
        </CharString>
        <CharString name="dvGH_MA">
          940 1404 -72 callsubr
          -415 -256 rmoveto
          16 callgsubr
          -396 hlineto
          174 callsubr
          845 206 callgsubr
          -1673 -59 149 hlineto
          20 callgsubr
          441 hlineto
          26 17 5 11 10 hvcurveto
          -11 13 19 205 callgsubr
        </CharString>
        <CharString name="dvGH_NA">
          940 1404 230 callgsubr
          -236 -1 31 callgsubr
          -396 hlineto
          174 callsubr
          1164 hlineto
          38 callsubr
          -1673 -59 149 hlineto
          20 callgsubr
          441 hlineto
          26 17 6 236 callsubr
          -6 25 hhcurveto
          -45 callsubr
        </CharString>
        <CharString name="dvGH_R">
          -163 120 398 rmoveto
          219 callsubr
          351 hlineto
          -150 -143 rlineto
          113 hlineto
          161 157 rlineto
          23 45 -456 -103 callgsubr
          109 -107 callsubr
          213 59 -213 -103 callgsubr
          123 -107 callsubr
          310 59 -570 277 callsubr
          endchar
        </CharString>
        <CharString name="dvGH_RA">
          206 670 182 rmoveto
          -47 callsubr
          -396 -103 callgsubr
          109 186 callgsubr
          249 59 rmoveto
          -939 277 callsubr
          -138 vlineto
          219 callsubr
          356 hlineto
          -150 -143 rlineto
          108 hlineto
          158 154 rlineto
          -100 17 callsubr
        </CharString>
        <CharString name="dvGH_YA">
          860 1325 176 -104 callgsubr
          -1085 -426 168 callsubr
          745 49 callsubr
          937 46 callgsubr
          -1593 -59 149 hlineto
          20 callgsubr
          441 -5 callsubr
        </CharString>
        <CharString name="dvG_BA">
          883 961 199 callgsubr
          -1106 hmoveto
          -65 callgsubr
          1062 46 callgsubr
          -1616 -65 callsubr
          694 -251 vlineto
          130 callsubr
        </CharString>
        <CharString name="dvG_BHA">
          1157 91 callsubr
          1323 -455 -41 callgsubr
          567 312 rmoveto
          -248 -253 -230 174 hlineto
          -30 callgsubr
          230 -310 88 -18 callsubr
          vlineto
          endchar
        </CharString>
        <CharString name="dvG_BH_YA">
          1762 28 callgsubr
          2247 -446 28 callsubr
          -30 vhcurveto
          -474 -103 callgsubr
          142 247 -46 callsubr
          147 208 callsubr
          -944 -396 -41 callgsubr
          1192 312 rmoveto
          -967 -59 379 -56 callgsubr
          -131 -34 callsubr
          -515 174 hlineto
          -30 callgsubr
          220 160 callgsubr
          519 hlineto
          18 12 4 11 7 hvcurveto
          -93 -83 callgsubr
        </CharString>
        <CharString name="dvG_DA">
          813 -10 callsubr
          822 289 255 callgsubr
          -1546 -59 585 -137 -396 vlineto
          212 callgsubr
          615 51 callsubr
          endchar
        </CharString>
        <CharString name="dvG_DHA">
          1119 91 callsubr
          1852 hmoveto
          99 callgsubr
          -547 -84 callgsubr
          -119 vlineto
          -53 26 -26 53 vhcurveto
          590 -74 callgsubr
        </CharString>
        <CharString name="dvG_DH_VA">
          1504 28 callgsubr
          2237 hmoveto
          -738 -59 490 -392 hlineto
          -26 -8 -8 -73 callsubr
          -306 hlineto
          -103 callsubr
          -236 31 callgsubr
          -517 -84 callgsubr
          -119 vlineto
          -53 26 -26 53 vhcurveto
          562 9 callsubr
        </CharString>
        <CharString name="dvG_DH_YA">
          1704 28 callgsubr
          2189 -446 81 callsubr
          -938 -59 350 hlineto
          -22 callsubr
          -295 -198 209 callsubr
          -517 -84 callgsubr
          -119 vlineto
          -53 26 -26 53 vhcurveto
          562 -38 callgsubr
          519 hlineto
          18 12 4 11 7 hvcurveto
          -93 -83 callgsubr
        </CharString>
        <CharString name="dvG_GA">
          1161 950 -14 callgsubr
          -1070 hmoveto
          -65 callgsubr
          1340 46 callgsubr
          -1894 -65 callsubr
          655 -137 -396 vlineto
          164 callsubr
        </CharString>
        <CharString name="dvG_GHA">
          949 1413 133 callsubr
          -1206 -426 rmoveto
          -65 callgsubr
          1128 46 callgsubr
          -1682 -65 callsubr
          219 vlineto
          20 callgsubr
          439 31 callsubr
        </CharString>
        <CharString name="dvG_JA">
          1126 -10 callsubr
          1305 46 callgsubr
          -1859 -65 callsubr
          937 -78 -318 -317 vlineto
          -80 callsubr
          230 -426 -40 callgsubr
          vlineto
          endchar
        </CharString>
        <CharString name="dvG_LA">
          1193 -10 callsubr
          1372 46 callgsubr
          -1926 -65 callsubr
          1004 -78 -304 vlineto
          -29 -11 -13 -20 -6 hvcurveto
          -4 hlineto
          -102 callgsubr
          277 -426 -40 callgsubr
          hlineto
          endchar
        </CharString>
        <CharString name="dvG_MA">
          1133 1597 -72 callsubr
          -1071 -289 rmoveto
          -65 callgsubr
          1312 46 callgsubr
          -1866 -65 callsubr
          625 -78 -336 vlineto
          -53 -26 -26 -53 hvcurveto
          -1 callgsubr
        </CharString>
        <CharString name="dvG_NA">
          1102 1249 168 rmoveto
          -97 callgsubr
          -266 hlineto
          252 callgsubr
          hlineto
          -1042 -289 rmoveto
          -65 callgsubr
          1281 46 callgsubr
          -1835 -65 callsubr
          913 -78 -654 vlineto
          -53 -26 -26 -53 hvcurveto
          12 callsubr
        </CharString>
        <CharString name="dvG_NNA">
          1145 1274 168 -25 callgsubr
          -1067 -426 rmoveto
          -65 callgsubr
          1324 46 callgsubr
          -1878 -65 callsubr
          210 180 callgsubr
        </CharString>
        <CharString name="dvG_N_YA">
          1792 1288 168 rmoveto
          -97 callgsubr
          -266 hlineto
          252 callgsubr
          hlineto
          315 hmoveto
          59 -652 vlineto
          -79 callsubr
          vlineto
          882 -250 -104 callgsubr
          -2050 -426 rmoveto
          -65 callgsubr
          1971 46 callgsubr
          -2525 -65 callsubr
          1264 vlineto
          -99 callgsubr
        </CharString>
        <CharString name="dvG_R">
          94 callgsubr
          242 94 rmoveto
          -293 -308 rlineto
          107 hlineto
          233 253 rlineto
          endchar
        </CharString>
        <CharString name="dvG_RA">
          418 207 137 99 callsubr
          -328 vlineto
          -281 -292 rlineto
          107 hlineto
          178 193 rlineto
          0 -4 -54 -48 vvcurveto
          -46 88 575 -48 callsubr
        </CharString>
        <CharString name="dvG_R_YA">
          1048 1513 176 -104 callgsubr
          -1306 -426 rmoveto
          -65 callgsubr
          1227 46 callgsubr
          -1781 -65 callsubr
          520 94 callsubr
          -156 hlineto
          -256 -269 rlineto
          107 hlineto
          157 171 rlineto
          -24 12 23 -12 36 227 callsubr
        </CharString>
        <CharString name="dvG_SA">
          1146 1610 339 rmoveto
          -241 hlineto
          -74 callsubr
          249 hlineto
          -1403 -426 rmoveto
          -65 callgsubr
          1326 46 callgsubr
          -1880 -65 callsubr
          597 vlineto
          -91 callgsubr
          658 -280 89 563 161 vlineto
          endchar
        </CharString>
        <CharString name="dvG_VA">
          823 -10 callsubr
          1002 46 callgsubr
          -1556 -65 callsubr
          635 -392 vlineto
          -26 -8 -8 -73 callsubr
          -306 hlineto
          -103 callsubr
          126 callsubr
        </CharString>
        <CharString name="dvG_YA">
          1013 1478 176 -104 callgsubr
          -1271 -426 rmoveto
          -65 callgsubr
          1192 46 callgsubr
          -1746 -65 callsubr
          485 vlineto
          -99 callgsubr
        </CharString>
        <CharString name="dvGx">
          50 325 -79 19 callgsubr
          -118 124 rmoveto
          -65 callgsubr
          229 46 callgsubr
          -783 -65 callsubr
          110 vlineto
          endchar
        </CharString>
        <CharString name="dvGxA">
          418 328 -79 19 callgsubr
          -121 124 99 callsubr
          -563 88 -18 callsubr
          vlineto
          endchar
        </CharString>
        <CharString name="dvGx_R">
          94 callgsubr
          289 39 rmoveto
          -47 55 -293 -308 rlineto
          107 hlineto
          -35 -179 19 callgsubr
          endchar
        </CharString>
        <CharString name="dvGx_RA">
          354 684 -236 19 callgsubr
          -477 281 99 callsubr
          -328 vlineto
          -281 -292 rlineto
          107 hlineto
          178 193 rlineto
          0 -4 -54 -48 vvcurveto
          -46 88 575 -48 callsubr
        </CharString>
        <CharString name="dvH">
          76 918 265 rmoveto
          59 -670 vlineto
          -107 callgsubr
          40 -107 callsubr
          383 137 286 59 -937 267 callgsubr
          -64 103 callgsubr
          -162 137 callsubr
          144 -107 callsubr
          endchar
        </CharString>
        <CharString name="dvHA">
          147 callsubr
          -162 -31 callsubr
        </CharString>
        <CharString name="dvHA_mU">
          125 callsubr
          331 hlineto
          26 8 -9 -24 hvcurveto
          -96 31 callgsubr
          -215 hlineto
          -23 -7 8 20 -12 hvcurveto
          -42 72 rlineto
          -102 hlineto
          58 -95 252 callsubr
          130 vlineto
          53 -22 22 -53 vhcurveto
          -338 126 callgsubr
        </CharString>
        <CharString name="dvHA_mUU">
          125 callsubr
          16 hlineto
          -1 -5 0 -5 -6 vvcurveto
          148 callsubr
          -122 206 rlineto
          59 -35 -21 5 -70 hhcurveto
          -287 126 callgsubr
        </CharString>
        <CharString name="dvHA_mvR">
          93 callgsubr
          -61 103 callgsubr
          -187 vlineto
          -53 26 -29 53 vhcurveto
          441 59 -400 hlineto
          -26 -5 8 26 hvcurveto
          169 -107 callsubr
          294 hlineto
          12 15 -5 -16 hvcurveto
          -22 -42 -32 -41 vvcurveto
          -39 26 -15 44 vhcurveto
          70 56 -35 hlineto
          -12 -5 4 8 hvcurveto
          22 43 35 41 vvcurveto
          50 -36 13 -44 vhcurveto
          -330 -103 callgsubr
          37 -107 callsubr
          endchar
        </CharString>
        <CharString name="dvH_LA">
          191 745 89 callsubr
          159 59 -924 -59 676 -78 -449 vlineto
          -103 callsubr
          -44 103 callgsubr
          -271 -100 callsubr
          557 59 -516 -103 callgsubr
          253 -107 callsubr
          396 hlineto
          26 5 -6 -25 hvcurveto
          -10 -99 vlineto
          -23 -10 -9 -15 -5 hvcurveto
          -4 hlineto
          17 -5 -13 7 -28 hhcurveto
          -114 hlineto
          -43 -20 -20 -41 hvcurveto
          -108 vlineto
          -43 20 -20 43 vhcurveto
          101 59 -60 hlineto
          -21 -4 4 21 hvcurveto
          64 vlineto
          21 4 4 21 vhcurveto
          55 hlineto
          21 4 -4 -21 hvcurveto
          -57 80 57 vlineto
          21 4 4 21 vhcurveto
          75 -173 89 252 hlineto
          54 -27 -42 callgsubr
          -436 -103 callgsubr
          20 -107 callsubr
          endchar
        </CharString>
        <CharString name="dvH_MA">
          436 900 242 rmoveto
          -250 12 hlineto
          213 callsubr
          30 175 callsubr
          -54 103 callgsubr
          -172 137 callsubr
          154 120 callsubr
          hlineto
          26 5 -6 -25 hvcurveto
          -112 87 51 250 -183 17 callsubr
        </CharString>
        <CharString name="dvH_NA">
          204 callsubr
          -54 103 callgsubr
          -241 137 callsubr
          223 120 callsubr
          hlineto
          26 5 -6 -25 hvcurveto
          -48 -157 104 callsubr
          -51 88 39 vlineto
          26 6 -91 callsubr
          116 -79 87 196 hlineto
          213 callsubr
          30 -107 callsubr
          endchar
        </CharString>
        <CharString name="dvH_NNA">
          177 494 179 rmoveto
          -14 -3 -3 -15 vhcurveto
          -73 hlineto
          -14 -3 3 14 hvcurveto
          106 108 vlineto
          237 141 rmoveto
          137 159 59 -910 -59 662 -78 -435 vlineto
          -103 callsubr
          -44 103 callgsubr
          -182 -100 callsubr
          541 59 -500 -103 callgsubr
          164 -107 callsubr
          59 -125 hlineto
          -38 19 -19 37 vhcurveto
          153 hlineto
          38 19 19 38 hvcurveto
          125 57 vlineto
          26 5 -6 -25 hvcurveto
          -112 89 122 vlineto
          54 -27 -42 callgsubr
          -422 -103 callgsubr
          20 -107 callsubr
          endchar
        </CharString>
        <CharString name="dvH_RA">
          204 callsubr
          -64 103 callgsubr
          -162 137 callsubr
          144 -107 callsubr
          224 hlineto
          -105 -144 rlineto
          99 hlineto
          93 136 rlineto
          3 -5 1 -7 -11 vvcurveto
          -99 87 109 vlineto
          54 -27 26 -53 vhcurveto
          -322 65 callsubr
        </CharString>
        <CharString name="dvH_VA">
          112 656 89 callsubr
          169 59 -845 -59 588 -78 -361 vlineto
          -103 callsubr
          -43 vlineto
          -31 15 -17 26 -1 vhcurveto
          -3 vlineto
          -26 -2 -15 -15 -32 vvcurveto
          -230 -100 callsubr
          468 59 -427 hlineto
          -26 -5 15 25 hvcurveto
          203 -107 callsubr
          327 hlineto
          26 5 -6 -25 hvcurveto
          -113 vlineto
          -21 -6 -6 -21 vhcurveto
          -198 hlineto
          -21 -4 4 21 hvcurveto
          26 vlineto
          21 4 4 21 vhcurveto
          192 47 -219 hlineto
          -43 -20 -20 -43 hvcurveto
          -45 vlineto
          -42 20 -21 43 vhcurveto
          226 hlineto
          12 8 2 6 6 hvcurveto
          -30 69 220 vlineto
          54 -26 26 -54 vhcurveto
          -347 -103 callgsubr
          19 -107 callsubr
          endchar
        </CharString>
        <CharString name="dvH_YA">
          436 900 222 rmoveto
          -47 callsubr
          -224 hlineto
          5 5 3 8 14 vvcurveto
          44 vlineto
          213 callsubr
          25 175 callsubr
          -49 103 callgsubr
          -177 137 callsubr
          159 120 callsubr
          hlineto
          26 5 -6 -25 hvcurveto
          -30 -94 callgsubr
          -122 -59 458 -90 callsubr
          -138 17 callsubr
        </CharString>
        <CharString name="dvI">
          63 647 89 callsubr
          129 59 -796 22 callsubr
          endchar
        </CharString>
        <CharString name="dvII">
          65 649 89 callsubr
          129 59 -183 106 vlineto
          25 -102 callsubr
          121 59 -162 158 callgsubr
          -117 -524 22 callsubr
          endchar
        </CharString>
        <CharString name="dvII_Anusvara">
          65 649 89 callsubr
          129 59 -218 138 vlineto
          24 8 9 26 245 callsubr
          -222 269 callgsubr
          -155 -488 22 callsubr
          502 234 rmoveto
          93 -91 -93 vlineto
          endchar
        </CharString>
        <CharString name="dvJ">
          18 891 46 callgsubr
          162 callgsubr
          269 275 vlineto
          -911 196 rmoveto
          -59 911 59 vlineto
          endchar
        </CharString>
        <CharString name="dvJA">
          382 1095 7 callsubr
          -1115 -59 866 -78 -318 163 callsubr
          269 230 -426 -40 callgsubr
          vlineto
          endchar
        </CharString>
        <CharString name="dvJH">
          25 652 89 callsubr
          230 59 -902 -59 584 -78 -375 vlineto
          -103 callsubr
          -28 callsubr
          231 59 -652 -103 callgsubr
          33 -107 callsubr
          endchar
        </CharString>
        <CharString name="dvJHA">
          407 872 331 rmoveto
          -642 hlineto
          63 callsubr
          220 hlineto
          133 callgsubr
          -1140 -59 584 -78 -375 hlineto
          -103 callsubr
          -28 callsubr
          221 -272 88 90 callsubr
        </CharString>
        <CharString name="dvJH_MA">
          1150 1614 -72 callsubr
          -415 -95 rmoveto
          -650 hlineto
          63 callsubr
          643 206 callgsubr
          -1883 -59 584 -78 -375 hlineto
          -103 callsubr
          -28 callsubr
          229 -115 hlineto
          -16 callsubr
        </CharString>
        <CharString name="dvJH_NA">
          1130 1594 230 callgsubr
          -75 -631 vlineto
          63 callsubr
          942 hlineto
          38 callsubr
          -1863 -59 584 -78 -375 hlineto
          -103 callsubr
          -28 callsubr
          210 -115 hlineto
          -15 callgsubr
        </CharString>
        <CharString name="dvJH_R">
          39 652 252 rmoveto
          163 callgsubr
          261 59 -682 hlineto
          63 callsubr
          100 59 -772 -59 584 -78 -375 hlineto
          -103 callsubr
          -56 vlineto
          -53 26 -25 53 vhcurveto
          343 hlineto
          26 6 -6 -26 hvcurveto
          -72 -29 callgsubr
          -338 53 -89 -190 89 78 380 hlineto
          53 25 -76 callgsubr
          245 43 rmoveto
          -271 -257 rlineto
          110 hlineto
          205 204 rlineto
          endchar
        </CharString>
        <CharString name="dvJH_RA">
          407 872 331 rmoveto
          -642 hlineto
          63 callsubr
          220 hlineto
          133 callgsubr
          -1140 -59 584 -78 -375 hlineto
          -103 callsubr
          -28 callsubr
          221 -95 hlineto
          -246 -234 rlineto
          110 hlineto
          140 143 rlineto
          0 -4 -22 272 callsubr
        </CharString>
        <CharString name="dvJH_YA">
          1066 1531 176 -104 callgsubr
          -655 -195 rmoveto
          -37 -646 vlineto
          63 callsubr
          539 227 callgsubr
          -1799 -59 584 -78 -375 hlineto
          -103 callsubr
          -28 callsubr
          225 -115 hlineto
          -85 callsubr
        </CharString>
        <CharString name="dvJ_BA">
          863 941 199 callgsubr
          283 46 callgsubr
          -1596 -59 1347 226 callsubr
          -4 -4 0 -4 hhcurveto
          0 -363 -317 vlineto
          -80 callsubr
          209 171 callsubr
        </CharString>
        <CharString name="dvJ_DA">
          786 1329 426 255 callgsubr
          -1519 -59 1261 256 callgsubr
          -4 0 162 callgsubr
          269 201 53 callgsubr
        </CharString>
        <CharString name="dvJ_DDA">
          751 1311 426 269 callsubr
          -1485 -59 1243 -78 -327 vlineto
          -5 0 162 callgsubr
          269 203 78 callgsubr
        </CharString>
        <CharString name="dvJ_JA">
          1103 1816 7 callsubr
          -1836 -59 1587 -78 -318 18 callgsubr
          230 -426 -40 callgsubr
          vlineto
          endchar
        </CharString>
        <CharString name="dvJ_JHA">
          1123 1588 331 rmoveto
          -642 hlineto
          63 callsubr
          220 hlineto
          133 callgsubr
          -1856 -59 1300 -78 -752 163 callsubr
          269 211 vlineto
          -39 callgsubr
          -28 callsubr
          221 -272 88 90 callsubr
        </CharString>
        <CharString name="dvJ_J_NYA">
          1079 1792 7 callsubr
          -1812 -59 1563 -78 -648 hlineto
          -4 0 162 callgsubr
          269 201 vlineto
          -39 callgsubr
          -65 vlineto
          47 callgsubr
          607 -426 95 callsubr
        </CharString>
        <CharString name="dvJ_J_VA">
          1511 2224 7 callsubr
          -2244 -59 1996 -392 hlineto
          -26 -8 -8 -73 callsubr
          -677 18 callgsubr
          205 vlineto
          -1 -6 0 -7 -7 vvcurveto
          126 callsubr
        </CharString>
        <CharString name="dvJ_J_YA">
          1757 1565 46 callgsubr
          -316 18 callgsubr
          228 vlineto
          657 -250 -73 callgsubr
          -2490 -59 1902 hlineto
          -99 callgsubr
        </CharString>
        <CharString name="dvJ_KA">
          1109 1822 563 rmoveto
          59 -1842 -59 1237 -392 vlineto
          -96 callsubr
          -8 0 162 callgsubr
          269 205 vlineto
          -48 callgsubr
        </CharString>
        <CharString name="dvJ_MA">
          1088 1552 485 148 callgsubr
          -1821 -59 1253 -78 -336 hlineto
          -6 0 162 callgsubr
          269 203 vlineto
          -1 -6 0 -7 -7 vvcurveto
          -1 callgsubr
        </CharString>
        <CharString name="dvJ_NA">
          1079 1226 8 callgsubr
          -1812 -59 1563 -78 -1015 163 callsubr
          269 195 vlineto
          29 callgsubr
        </CharString>
        <CharString name="dvJ_NY">
          17 119 341 rmoveto
          47 callgsubr
          634 59 -675 hlineto
          -103 callsubr
          -139 216 rmoveto
          -59 893 59 vlineto
          endchar
        </CharString>
        <CharString name="dvJ_NYA">
          382 1095 7 callsubr
          -1115 -59 866 -78 -648 hlineto
          -103 callsubr
          -65 vlineto
          47 callgsubr
          607 -426 95 callsubr
        </CharString>
        <CharString name="dvJ_NY_YA">
          1004 239 321 rmoveto
          218 callgsubr
          42 -107 callsubr
          603 59 -644 hlineto
          -103 callsubr
          -65 -100 callsubr
          298 -56 callgsubr
          -63 -94 callgsubr
          -304 60 -89 -197 89 78 345 -85 callgsubr
          86 268 callgsubr
          957 -145 -73 callgsubr
          -1762 -59 1174 hlineto
          -99 callgsubr
        </CharString>
        <CharString name="dvJ_R">
          266 callgsubr
          -111 -137 rmoveto
          275 59 162 callgsubr
          241 65 rmoveto
          -293 -279 232 callsubr
          223 223 rlineto
          endchar
        </CharString>
        <CharString name="dvJ_RA">
          382 1095 7 callsubr
          -1115 -59 866 -78 -318 163 callsubr
          269 230 -217 72 callsubr
          -5 283 callgsubr
          89 575 -48 callsubr
        </CharString>
        <CharString name="dvJ_TA">
          813 1526 7 callsubr
          -1546 -59 1297 -78 -379 hlineto
          -7 0 162 callgsubr
          269 204 vlineto
          -1 -6 0 -7 -7 vvcurveto
          -327 -58 callsubr
        </CharString>
        <CharString name="dvJ_TTA">
          774 1319 426 173 callsubr
          -1507 -59 1251 -78 -329 vlineto
          -4 -3 0 -4 hhcurveto
          0 -363 -317 vlineto
          -80 callsubr
          208 vlineto
          -39 callgsubr
          -327 -57 callgsubr
        </CharString>
        <CharString name="dvJ_VA">
          818 1531 7 callsubr
          -1551 -59 1303 -392 hlineto
          -26 -8 -8 -73 callsubr
          -705 163 callsubr
          269 233 vlineto
          -1 -6 0 -7 -7 vvcurveto
          126 callsubr
        </CharString>
        <CharString name="dvJ_YA">
          1041 851 426 rmoveto
          59 -323 -317 vlineto
          -80 callsubr
          vlineto
          890 -250 -73 callgsubr
          -1774 -59 1186 hlineto
          -99 callgsubr
        </CharString>
        <CharString name="dvJx">
          18 320 -79 19 callgsubr
          571 472 rmoveto
          162 callgsubr
          269 275 vlineto
          -911 196 rmoveto
          -59 911 59 vlineto
          endchar
        </CharString>
        <CharString name="dvJxA">
          382 312 -79 19 callgsubr
          783 609 rmoveto
          -1115 -59 866 -78 -318 163 callsubr
          269 230 -426 -40 callgsubr
          vlineto
          endchar
        </CharString>
        <CharString name="dvJx_JxA">
          1105 320 -79 19 callgsubr
          713 -92 19 callgsubr
          785 609 rmoveto
          -1838 -59 1589 65 callgsubr
          -403 -317 vlineto
          -80 callsubr
          227 -269 186 callsubr
        </CharString>
        <CharString name="dvJx_R">
          266 callgsubr
          -399 -668 19 callgsubr
          288 439 rmoveto
          275 59 162 callgsubr
          241 65 rmoveto
          -293 -279 232 callsubr
          223 223 rlineto
          endchar
        </CharString>
        <CharString name="dvJx_RA">
          369 317 -148 19 callgsubr
          778 678 rmoveto
          -1115 -59 866 -78 -318 163 callsubr
          269 230 -217 72 callsubr
          -5 283 callgsubr
          89 575 -48 callsubr
        </CharString>
        <CharString name="dvJx_YA">
          1041 318 -107 19 callgsubr
          533 441 rmoveto
          59 -323 -317 vlineto
          -80 callsubr
          vlineto
          890 -250 -73 callgsubr
          -1774 -59 1186 hlineto
          -99 callgsubr
        </CharString>
        <CharString name="dvK">
          52 617 485 280 callsubr
          59 -885 -59 517 -392 vlineto
          -96 callsubr
          -103 callsubr
          -95 callgsubr
          -87 callgsubr
          284 59 hlineto
          endchar
        </CharString>
        <CharString name="dvKA">
          389 1102 563 rmoveto
          59 -1122 -59 517 -392 vlineto
          -96 callsubr
          -103 callsubr
          -44 callgsubr
        </CharString>
        <CharString name="dvKH">
          340 209 243 64 callgsubr
        </CharString>
        <CharString name="dvKHA">
          688 1400 7 callsubr
          -1420 -59 488 -230 hlineto
          -26 -5 -5 -26 vhcurveto
          -228 174 -89 -397 hlineto
          -66 callsubr
        </CharString>
        <CharString name="dvKH_KHA">
          1719 2432 7 callsubr
          -2452 -59 callgsubr
          944 -230 vlineto
          11 callsubr
          -264 140 callsubr
          12 146 callgsubr
          -44 vlineto
          -66 callsubr
        </CharString>
        <CharString name="dvKH_MA">
          1422 1886 485 148 callgsubr
          -2155 -59 callgsubr
          1011 -78 -336 260 callgsubr
          -37 callgsubr
          14 11 2 3 9 hvcurveto
          -32 9 25 -15 41 213 callgsubr
        </CharString>
        <CharString name="dvKH_NA">
          1443 1590 8 callgsubr
          -2176 -59 callgsubr
          1351 -78 -654 vlineto
          -103 callsubr
          -194 vlineto
          -24 -8 -10 -26 vhcurveto
          -316 -10 callgsubr
          356 hlineto
          14 11 2 3 9 hvcurveto
          -32 9 25 -15 41 hhcurveto
          -45 callsubr
        </CharString>
        <CharString name="dvKH_R">
          319 251 callsubr
          476 59 -1052 -59 488 -230 vlineto
          -55 callsubr
          615 88 117 callgsubr
        </CharString>
        <CharString name="dvKH_RA">
          688 1400 7 callsubr
          -1420 -59 488 -230 hlineto
          -26 -5 -5 -26 vhcurveto
          -228 174 -89 -397 -3 callsubr
        </CharString>
        <CharString name="dvKH_SHA">
          1431 209 243 -9 callgsubr
        </CharString>
        <CharString name="dvKH_TA">
          1126 1839 7 callsubr
          -1859 -59 callgsubr
          1034 -78 -379 260 callgsubr
          -274 259 callsubr
          263 59 -299 257 callsubr
          314 hlineto
          12 146 callgsubr
          -44 -58 callsubr
        </CharString>
        <CharString name="dvKH_VA">
          1121 1834 7 callsubr
          -1854 -59 callgsubr
          1030 -392 vlineto
          -26 -8 -8 -73 callsubr
          -306 hlineto
          -103 callsubr
          -206 vlineto
          209 callgsubr
          -37 callgsubr
          13 11 1 3 9 hvcurveto
          -31 10 24 -15 41 229 callgsubr
        </CharString>
        <CharString name="dvKH_YA">
          1342 1807 176 -73 callgsubr
          -2075 -59 callgsubr
          911 94 callsubr
          -156 140 callsubr
          14 11 2 3 9 hvcurveto
          -32 9 25 -15 41 227 callsubr
        </CharString>
        <CharString name="dvKHx">
          340 465 -157 19 callgsubr
          -256 308 64 callgsubr
        </CharString>
        <CharString name="dvKHxA">
          688 514 -157 19 callgsubr
          886 687 rmoveto
          -1420 -59 488 -230 hlineto
          -26 -5 -5 -26 vhcurveto
          -228 174 -89 -397 hlineto
          -66 callsubr
        </CharString>
        <CharString name="dvKHx_MA">
          1422 465 -157 19 callgsubr
          1421 550 148 callgsubr
          -2155 -59 callgsubr
          1011 -78 -336 260 callgsubr
          -37 callgsubr
          14 11 2 3 9 hvcurveto
          -32 9 25 -15 41 213 callgsubr
        </CharString>
        <CharString name="dvKHx_R">
          319 251 callsubr
          476 59 -1052 -59 488 -230 vlineto
          -55 callsubr
          765 -317 19 callgsubr
          -150 313 117 callgsubr
        </CharString>
        <CharString name="dvKHx_RA">
          646 944 -227 19 callgsubr
          456 757 rmoveto
          -1420 -59 488 -230 hlineto
          -26 -5 -5 -26 vhcurveto
          -228 174 -89 -397 -3 callsubr
        </CharString>
        <CharString name="dvKHx_SA">
          1435 465 -157 19 callgsubr
          1434 404 rmoveto
          -241 hlineto
          -74 callsubr
          249 hlineto
          250 59 rmoveto
          -2169 -59 callgsubr
          983 vlineto
          -68 callsubr
          -298 137 -89 -264 140 callsubr
          12 146 callgsubr
          -44 4 callsubr
        </CharString>
        <CharString name="dvKHx_SHA">
          1431 465 -157 19 callgsubr
          -256 308 -9 callgsubr
        </CharString>
        <CharString name="dvKHx_TA">
          1126 465 -157 19 callgsubr
          1374 687 rmoveto
          -1859 -59 callgsubr
          1034 -78 -379 260 callgsubr
          -274 259 callsubr
          263 59 -299 257 callsubr
          314 hlineto
          12 146 callgsubr
          -44 -58 callsubr
        </CharString>
        <CharString name="dvKHx_VA">
          1121 465 -157 19 callgsubr
          1369 687 rmoveto
          -1854 -59 callgsubr
          1030 -392 vlineto
          -26 -8 -8 -73 callsubr
          -306 hlineto
          -103 callsubr
          -206 vlineto
          209 callgsubr
          -37 callgsubr
          13 11 1 3 9 hvcurveto
          -31 10 24 -15 41 229 callgsubr
        </CharString>
        <CharString name="dvKHx_YA">
          1342 465 -157 19 callgsubr
          1342 241 -73 callgsubr
          -2075 -59 callgsubr
          911 94 callsubr
          -156 140 callsubr
          14 11 2 3 9 hvcurveto
          -32 9 25 -15 41 227 callsubr
        </CharString>
        <CharString name="dvK_CA">
          890 1355 171 rmoveto
          50 callgsubr
          -535 hlineto
          -60 callsubr
          770 vlineto
          133 callgsubr
          -1623 -59 517 -392 hlineto
          -96 callsubr
          -103 callsubr
          -95 callgsubr
          -87 callgsubr
          250 231 callgsubr
          -242 207 callsubr
        </CharString>
        <CharString name="dvK_DA">
          798 907 46 callgsubr
          -4 107 callgsubr
          668 -78 vlineto
          88 -59 255 callgsubr
          -1531 -59 517 -392 vlineto
          -96 callsubr
          -103 callsubr
          -95 callgsubr
          -87 callgsubr
          210 115 callgsubr
        </CharString>
        <CharString name="dvK_JA">
          1122 1586 46 callgsubr
          88 callgsubr
          -331 vlineto
          -60 callsubr
          1001 263 callsubr
          -1855 -59 517 -392 hlineto
          -96 callsubr
          -103 callsubr
          -95 callgsubr
          -87 callgsubr
          241 -269 hlineto
          20 callsubr
        </CharString>
        <CharString name="dvK_KA">
          1119 1227 171 rmoveto
          -96 callsubr
          -6 107 callgsubr
          642 vlineto
          605 hmoveto
          59 -1852 -59 517 -392 vlineto
          -96 callsubr
          -103 callsubr
          -95 callgsubr
          -87 callgsubr
          212 hlineto
          -48 callgsubr
        </CharString>
        <CharString name="dvK_KHA">
          1432 1213 333 rmoveto
          88 callsubr
          183 -337 hlineto
          -60 callsubr
          628 vlineto
          932 59 rmoveto
          -2165 -59 517 -392 hlineto
          -96 callsubr
          -103 callsubr
          -95 callgsubr
          -87 callgsubr
          246 -347 hlineto
          -66 callsubr
        </CharString>
        <CharString name="dvK_LA">
          1156 1620 46 callgsubr
          178 callgsubr
          -303 hlineto
          -3 107 callgsubr
          1035 263 callsubr
          -1889 -59 517 -392 hlineto
          -96 callsubr
          -103 callsubr
          -95 callgsubr
          -87 callgsubr
          209 hlineto
          -39 callgsubr
          -327 -71 callsubr
        </CharString>
        <CharString name="dvK_MA">
          1099 1563 -72 callsubr
          -341 59 rmoveto
          0 -286 vlineto
          -60 callsubr
          659 -78 -336 vlineto
          904 137 rmoveto
          -1832 -59 517 -392 hlineto
          -96 callsubr
          -103 callsubr
          -95 callgsubr
          -87 callgsubr
          211 hlineto
          -1 -6 0 -7 -7 vvcurveto
          -1 callgsubr
        </CharString>
        <CharString name="dvK_NA">
          1088 1552 46 callgsubr
          -935 hlineto
          -60 callsubr
          967 vlineto
          38 callsubr
          -1821 -59 517 -392 hlineto
          -96 callsubr
          -103 callsubr
          -95 callgsubr
          -87 callgsubr
          201 hlineto
          29 callgsubr
        </CharString>
        <CharString name="dvK_NNA">
          1116 1245 168 -25 callgsubr
          -628 -78 103 callsubr
          249 -78 vlineto
          995 137 rmoveto
          -1849 -59 517 -392 hlineto
          -96 callsubr
          -103 callsubr
          -95 callgsubr
          -87 callgsubr
          215 -269 hlineto
          191 callsubr
        </CharString>
        <CharString name="dvK_PA">
          804 1269 -37 callsubr
          -652 -78 103 callsubr
          259 -78 vlineto
          674 137 rmoveto
          -1538 -59 517 -392 hlineto
          -96 callsubr
          -103 callsubr
          -95 callgsubr
          -87 callgsubr
          225 -269 hlineto
          40 callgsubr
        </CharString>
        <CharString name="dvK_PHA">
          1170 1270 -37 callsubr
          -653 -78 103 callsubr
          260 -78 vlineto
          1038 78 rmoveto
          59 -1903 -59 517 -392 vlineto
          -96 callsubr
          -103 callsubr
          -95 callgsubr
          -87 callgsubr
          226 -269 hlineto
          -53 26 -26 53 vhcurveto
          314 hlineto
          14 11 3 6 7 hvcurveto
          -87 -87 callsubr
        </CharString>
        <CharString name="dvK_P_RA">
          813 1278 17 callgsubr
          -661 -78 103 callsubr
          268 -78 vlineto
          674 137 rmoveto
          -1547 -59 517 -392 hlineto
          -96 callsubr
          -103 callsubr
          -95 callgsubr
          -87 callgsubr
          234 -237 109 callgsubr
        </CharString>
        <CharString name="dvK_R">
          48 617 485 103 callsubr
          176 59 -781 -59 517 -392 vlineto
          -96 callsubr
          -103 callsubr
          -95 callgsubr
          215 hlineto
          -105 -143 rlineto
          102 250 callgsubr
          288 59 hlineto
          endchar
        </CharString>
        <CharString name="dvK_RA">
          389 1102 563 rmoveto
          59 -1122 -59 517 -392 vlineto
          -96 callsubr
          -103 callsubr
          -95 callgsubr
          219 hlineto
          -105 -143 rlineto
          98 -21 callgsubr
        </CharString>
        <CharString name="dvK_SA">
          1107 1571 339 rmoveto
          -241 hlineto
          -74 callsubr
          249 hlineto
          -658 -224 rmoveto
          146 -296 vlineto
          -60 callsubr
          626 225 callsubr
          -1841 -59 517 -392 hlineto
          -96 callsubr
          -103 callsubr
          -95 callgsubr
          -87 callgsubr
          205 -347 hlineto
          -15 callsubr
        </CharString>
        <CharString name="dvK_SHA">
          1139 904 262 callsubr
          -58 -208 vlineto
          -60 callsubr
          60 59 -665 -59 517 -392 vlineto
          -96 callsubr
          -103 callsubr
          -95 callgsubr
          -87 callgsubr
          294 106 hlineto
          -88 callsubr
          567 hmoveto
          -249 -622 95 callsubr
        </CharString>
        <CharString name="dvK_SS">
          30 239 531 rmoveto
          26 6 -91 callsubr
          228 -56 callgsubr
          -137 87 callgsubr
          hlineto
          -26 -7 -97 callsubr
          639 -89 rmoveto
          58 -270 vlineto
          -49 callsubr
          endchar
        </CharString>
        <CharString name="dvK_SSA">
          383 530 394 23 callgsubr
          566 91 rmoveto
          -249 -259 -239 hlineto
          -49 callsubr
          627 -305 95 callsubr
        </CharString>
        <CharString name="dvK_SS_MA">
          1110 1574 -72 callsubr
          -725 -32 23 callgsubr
          1293 91 rmoveto
          -1066 -59 498 -78 -336 hlineto
          -103 callsubr
          -43 -232 vlineto
          -49 callsubr
          620 -148 hlineto
          -16 callsubr
        </CharString>
        <CharString name="dvK_SS_M_YA">
          1764 2229 176 -104 callgsubr
          -974 -98 callgsubr
          -725 -32 23 callgsubr
          1947 91 rmoveto
          -1715 -59 493 -78 -336 hlineto
          -103 callsubr
          -43 -232 vlineto
          -49 callsubr
          620 -148 hlineto
          -105 callgsubr
          346 -85 callgsubr
          269 232 59 -232 78 545 vlineto
          -99 callgsubr
        </CharString>
        <CharString name="dvK_SS_VA">
          820 530 394 23 callgsubr
          1003 91 rmoveto
          -785 -59 537 -392 hlineto
          -26 -8 -8 -73 callsubr
          -306 hlineto
          -103 callsubr
          -43 -242 vlineto
          -49 callsubr
          630 -148 hlineto
          58 callsubr
        </CharString>
        <CharString name="dvK_SS_YA">
          1020 1485 182 callsubr
          136 267 -46 callsubr
          153 208 callsubr
          -955 -169 23 callgsubr
          1203 91 rmoveto
          -987 -59 399 -56 callgsubr
          -137 -34 callsubr
          -537 hlineto
          -49 callsubr
          610 -148 hlineto
          -85 callsubr
        </CharString>
        <CharString name="dvK_S_DDA">
          1528 1672 46 callgsubr
          218 callsubr
          -67 -237 vlineto
          -74 callsubr
          650 -78 hlineto
          -1059 -146 rmoveto
          137 -1 9 -322 vlineto
          -60 callsubr
          653 vlineto
          -68 callsubr
          849 87 269 callsubr
          -2261 -59 517 -392 vlineto
          -96 callsubr
          -103 callsubr
          -95 callgsubr
          -87 callgsubr
          232 -52 callsubr
          666 vlineto
          -19 12 22 -9 32 hhcurveto
          -63 callsubr
          endchar
        </CharString>
        <CharString name="dvK_S_P_LA">
          2309 2773 46 callgsubr
          44 callgsubr
          -236 31 callgsubr
          -255 1 callgsubr
          1113 vlineto
          -1443 -224 rmoveto
          -74 callsubr
          250 -224 hlineto
          -659 hmoveto
          146 -296 vlineto
          -60 callsubr
          626 vlineto
          -68 callsubr
          1811 283 rmoveto
          -3042 -59 517 -392 hlineto
          -96 callsubr
          -103 callsubr
          -95 callgsubr
          -87 callgsubr
          205 -52 callsubr
          659 120 callgsubr
          299 hlineto
          12 146 callgsubr
          -2 -71 callsubr
        </CharString>
        <CharString name="dvK_S_P_RA">
          1570 2035 17 callgsubr
          -679 -224 rmoveto
          -74 callsubr
          262 -224 hlineto
          -671 hmoveto
          118 callsubr
          1047 283 rmoveto
          -2304 -59 517 -392 hlineto
          -96 callsubr
          -103 callsubr
          -95 callgsubr
          -87 callgsubr
          231 -52 callsubr
          671 -91 73 callgsubr
        </CharString>
        <CharString name="dvK_S_TA">
          1597 2061 170 callgsubr
          -1122 -224 rmoveto
          118 callsubr
          1073 283 rmoveto
          -2330 -59 517 -392 hlineto
          -96 callsubr
          -103 callsubr
          -95 callgsubr
          -87 callgsubr
          231 -52 callsubr
          664 -201 -58 callsubr
        </CharString>
        <CharString name="dvK_S_TTA">
          1556 1684 216 callsubr
          -67 -249 vlineto
          -74 callsubr
          665 -78 hlineto
          -1074 -146 rmoveto
          118 callsubr
          864 87 173 callsubr
          -2289 -59 517 -392 vlineto
          -96 callsubr
          -103 callsubr
          -95 callgsubr
          -87 callgsubr
          231 -52 callsubr
          666 -201 -57 callgsubr
        </CharString>
        <CharString name="dvK_TA">
          389 1102 563 rmoveto
          59 -1122 -59 517 -78 -461 -59 73 vlineto
          30 callsubr
          -320 -100 callsubr
          260 59 -219 -103 callgsubr
          305 vlineto
          174 callgsubr
          278 -426 88 392 hlineto
          26 8 8 264 callsubr
          -94 callgsubr
          -219 -59 260 hlineto
          53 26 26 53 hvcurveto
          327 -19 callsubr
        </CharString>
        <CharString name="dvK_THA">
          1075 1788 261 callsubr
          -548 -20 callgsubr
          -58 -221 vlineto
          -60 callsubr
          70 59 -675 -59 517 -392 vlineto
          -96 callsubr
          -103 callsubr
          -95 callgsubr
          -87 callgsubr
          307 106 hlineto
          24 callsubr
        </CharString>
        <CharString name="dvK_TTA">
          782 910 46 callgsubr
          -7 107 callgsubr
          654 -78 vlineto
          88 -59 173 callsubr
          -1515 -59 517 -392 vlineto
          -96 callsubr
          -103 callsubr
          -95 callgsubr
          -87 callgsubr
          213 hlineto
          -39 callgsubr
          -327 -57 callgsubr
        </CharString>
        <CharString name="dvK_T_RA">
          841 1307 270 rmoveto
          214 callgsubr
          -257 hlineto
          -60 callsubr
          722 vlineto
          247 59 rmoveto
          -1574 -59 517 -392 hlineto
          -96 callsubr
          -103 callsubr
          -95 callgsubr
          -87 callgsubr
          236 hlineto
          44 50 -8 69 callgsubr
          79 -210 87 90 callsubr
        </CharString>
        <CharString name="dvK_T_VA">
          1202 1667 171 rmoveto
          -26 -8 -8 -73 callsubr
          -712 hlineto
          -2 107 callgsubr
          1082 vlineto
          133 callgsubr
          -1935 -59 517 -392 hlineto
          -96 callsubr
          -103 callsubr
          -95 callgsubr
          -87 callgsubr
          208 167 callsubr
          287 hlineto
          -1 -6 0 -7 -7 vvcurveto
          126 callsubr
        </CharString>
        <CharString name="dvK_T_YA">
          1512 1977 176 -73 callgsubr
          -2245 -59 517 -392 hlineto
          -96 callsubr
          -103 callsubr
          -95 callgsubr
          -87 callgsubr
          214 167 callsubr
          370 59 -411 hlineto
          -8 107 callgsubr
          1052 vlineto
          -99 callgsubr
        </CharString>
        <CharString name="dvK_VA">
          793 1258 171 rmoveto
          -26 -8 -8 -73 callsubr
          -591 hlineto
          -60 callsubr
          673 vlineto
          133 callgsubr
          -1526 -59 517 -392 hlineto
          -96 callsubr
          -103 callsubr
          -95 callgsubr
          -87 callgsubr
          205 hlineto
          -1 -6 0 -7 -7 vvcurveto
          126 callsubr
        </CharString>
        <CharString name="dvK_V_YA">
          1505 1970 176 -104 callgsubr
          -1030 246 callsubr
          265 59 -588 hlineto
          -60 callsubr
          1045 vlineto
          54 callsubr
          937 46 callgsubr
          -2238 -59 517 -392 hlineto
          -96 callsubr
          -103 callsubr
          -95 callgsubr
          -87 callgsubr
          202 hlineto
          67 callgsubr
          386 -5 callsubr
        </CharString>
        <CharString name="dvK_YA">
          1023 1488 176 -73 callgsubr
          -1756 -59 517 -392 hlineto
          -96 callsubr
          -103 callsubr
          -95 callgsubr
          -87 callgsubr
          215 59 -217 hlineto
          -60 callsubr
          563 vlineto
          -99 callgsubr
        </CharString>
        <CharString name="dvKx">
          52 128 -79 19 callgsubr
          489 472 280 callsubr
          59 -885 -59 517 -392 vlineto
          -96 callsubr
          -103 callsubr
          -95 callgsubr
          -87 callgsubr
          284 59 hlineto
          endchar
        </CharString>
        <CharString name="dvKxA">
          389 180 -79 19 callgsubr
          922 550 rmoveto
          59 -1122 -59 517 -392 vlineto
          -96 callsubr
          -103 callsubr
          -44 callgsubr
        </CharString>
        <CharString name="dvKx_BA">
          869 128 -79 19 callgsubr
          819 413 rmoveto
          345 59 -383 hlineto
          -6 107 callgsubr
          748 -251 vlineto
          -89 8 -49 0 vhcurveto
          -394 -37 15 callsubr
          283 46 callgsubr
          -1602 -59 517 -392 hlineto
          -96 callsubr
          -103 callsubr
          -95 callgsubr
          -87 callgsubr
          212 170 callsubr
        </CharString>
        <CharString name="dvKx_KxA">
          1137 128 -79 19 callgsubr
          800 -92 19 callgsubr
          317 158 rmoveto
          -96 callsubr
          -9 -8 -1 -1 -7 hvcurveto
          2 -286 vlineto
          -60 callsubr
          660 vlineto
          605 hmoveto
          59 -1870 -59 517 -392 vlineto
          -96 callsubr
          -103 callsubr
          -95 callgsubr
          -87 callgsubr
          230 hlineto
          -48 callgsubr
        </CharString>
        <CharString name="dvKx_MA">
          1088 128 -79 19 callgsubr
          1424 472 -77 callgsubr
          59 vmoveto
          -616 hlineto
          -60 callsubr
          648 vlineto
          568 59 rmoveto
          -1821 -59 517 -392 hlineto
          -96 callsubr
          -103 callsubr
          -95 callgsubr
          -87 callgsubr
          200 hlineto
          -1 -6 0 -7 -7 vvcurveto
          -1 callgsubr
        </CharString>
        <CharString name="dvKx_PHA">
          1189 128 -79 19 callgsubr
          1162 158 -54 callgsubr
          395 337 vlineto
          -673 -78 280 callsubr
          -78 vlineto
          1038 78 rmoveto
          59 -1923 -59 517 -392 vlineto
          -96 callsubr
          -103 callsubr
          -95 callgsubr
          -87 callgsubr
          246 -269 hlineto
          -53 26 -26 53 vhcurveto
          314 hlineto
          14 11 3 6 7 hvcurveto
          -87 -87 callsubr
        </CharString>
        <CharString name="dvKx_PHxA">
          1189 128 -79 19 callgsubr
          772 -92 19 callgsubr
          390 158 -54 callgsubr
          395 337 vlineto
          -673 -78 280 callsubr
          -78 vlineto
          1038 78 rmoveto
          59 -1923 -59 517 -392 vlineto
          -96 callsubr
          -103 callsubr
          -95 callgsubr
          -87 callgsubr
          246 -269 hlineto
          -53 26 -26 53 vhcurveto
          314 hlineto
          14 11 3 6 7 hvcurveto
          -87 -87 callsubr
        </CharString>
        <CharString name="dvKx_R">
          48 354 -227 19 callgsubr
          263 620 103 callsubr
          176 59 -781 -59 517 -392 vlineto
          -96 callsubr
          -103 callsubr
          -95 callgsubr
          215 hlineto
          -105 -143 rlineto
          102 250 callgsubr
          288 59 hlineto
          endchar
        </CharString>
        <CharString name="dvKx_RA">
          389 354 -227 19 callgsubr
          748 698 rmoveto
          59 -1122 -59 517 -392 vlineto
          -96 callsubr
          -103 callsubr
          -95 callgsubr
          219 hlineto
          -105 -143 rlineto
          98 -21 callgsubr
        </CharString>
        <CharString name="dvKx_TA">
          822 128 -79 19 callgsubr
          1158 472 rmoveto
          -379 hlineto
          -4 107 callgsubr
          701 263 callsubr
          -1555 -59 517 -392 hlineto
          -96 callsubr
          -103 callsubr
          -95 callgsubr
          -87 callgsubr
          210 hlineto
          -1 -6 0 -7 -7 vvcurveto
          -327 -58 callsubr
        </CharString>
        <CharString name="dvL">
          92 905 7 callsubr
          -925 -59 925 hlineto
          -296 -78 rmoveto
          -29 -11 -13 -20 -6 hvcurveto
          -4 hlineto
          -102 callgsubr
          308 59 hlineto
          endchar
        </CharString>
        <CharString name="dvLA">
          449 1162 7 callsubr
          -1182 -59 933 -78 -304 hlineto
          -29 -11 -13 -20 -6 hvcurveto
          -4 hlineto
          -102 callgsubr
          277 -426 -40 callgsubr
          hlineto
          endchar
        </CharString>
        <CharString name="dvLL">
          365 29 callsubr
          -889 137 rmoveto
          -59 1098 59 vlineto
          endchar
        </CharString>
        <CharString name="dvLLA">
          365 829 426 rmoveto
          -16 callgsubr
          -227 -29 callgsubr
          -227 -106 callgsubr
          -115 -258 rmoveto
          88 callsubr
          -106 callgsubr
          228 -56 callgsubr
          591 168 rmoveto
          59 -1098 -59 703 -78 -106 vlineto
          -29 -13 -12 -21 -4 hvcurveto
          -4 hlineto
          -4 callgsubr
          263 callgsubr
          -95 callgsubr
          281 hlineto
          36 16 10 23 5 hvcurveto
          4 hlineto
          -22 5 12 -11 29 hhcurveto
          292 -85 callgsubr
          249 -84 callsubr
          -98 78 hlineto
          endchar
        </CharString>
        <CharString name="dvLL_YA">
          1314 29 callsubr
          910 -309 -73 callgsubr
          -2047 -59 1459 hlineto
          -99 callgsubr
        </CharString>
        <CharString name="dvL_BA">
          904 982 199 callgsubr
          283 46 callgsubr
          -1637 -59 1388 146 callsubr
          -718 hlineto
          -29 -11 -13 -20 -6 hvcurveto
          -4 hlineto
          -102 callgsubr
          230 170 callsubr
        </CharString>
        <CharString name="dvL_BHA">
          1124 634 7 callsubr
          -654 -59 654 hlineto
          636 -396 -41 callgsubr
          567 312 136 callgsubr
          -246 vlineto
          -29 -11 -13 -20 -6 hvcurveto
          -4 hlineto
          -102 callgsubr
          308 106 hlineto
          55 callgsubr
        </CharString>
        <CharString name="dvL_DA">
          846 1389 426 255 callgsubr
          -1579 -59 1321 256 callgsubr
          -4 -3 0 -4 hhcurveto
          0 -335 vlineto
          -29 -11 -13 -20 -6 hvcurveto
          -4 hlineto
          -102 callgsubr
          241 115 callgsubr
        </CharString>
        <CharString name="dvL_DDA">
          795 1354 426 269 callsubr
          -1528 -59 1286 -78 -657 vlineto
          -29 -11 -13 -20 -6 hvcurveto
          -4 hlineto
          -102 callgsubr
          226 hlineto
          -39 callgsubr
          -76 vlineto
          -53 25 -25 53 vhcurveto
          -63 callsubr
          endchar
        </CharString>
        <CharString name="dvL_DDHA">
          837 1359 426 238 callgsubr
          -1570 -59 1290 -78 -661 vlineto
          -29 -11 -13 -20 -6 hvcurveto
          -4 hlineto
          -102 callgsubr
          226 hlineto
          -39 callgsubr
          -327 -100 callsubr
          392 60 callsubr
        </CharString>
        <CharString name="dvL_D_RA">
          843 1386 426 255 callgsubr
          -1576 -59 1318 256 callgsubr
          -8 0 -335 hlineto
          -29 -11 -13 -20 -6 hvcurveto
          -4 hlineto
          -102 callgsubr
          238 hlineto
          -39 callgsubr
          21 callgsubr
          endchar
        </CharString>
        <CharString name="dvL_GA">
          1250 559 452 rmoveto
          -102 callgsubr
          218 59 -245 hlineto
          -29 -11 -13 -20 -6 hvcurveto
          476 -315 113 callgsubr
          -1983 -59 1417 -137 -396 hlineto
          164 callsubr
        </CharString>
        <CharString name="dvL_HA">
          820 1374 89 callsubr
          159 59 -1553 -59 1306 -78 -336 vlineto
          -6 0 -335 hlineto
          -29 -11 -13 -20 -6 hvcurveto
          -4 hlineto
          -102 callgsubr
          236 hlineto
          -39 callgsubr
          -64 103 callgsubr
          -162 -31 callsubr
        </CharString>
        <CharString name="dvL_JA">
          1128 1841 7 callsubr
          -1861 -59 1612 65 callgsubr
          -345 vlineto
          -29 -11 -13 -20 -6 hvcurveto
          -4 hlineto
          -102 callgsubr
          230 -269 hlineto
          20 callsubr
        </CharString>
        <CharString name="dvL_JxA">
          1143 1083 -79 19 callgsubr
          773 609 rmoveto
          -1876 -59 1627 65 callgsubr
          -360 vlineto
          -29 -11 -13 -20 -6 hvcurveto
          -4 hlineto
          -102 callgsubr
          245 -269 hlineto
          20 callsubr
        </CharString>
        <CharString name="dvL_KA">
          1130 1843 563 rmoveto
          59 -1863 -59 1258 -392 vlineto
          -96 callgsubr
          -579 hlineto
          -29 -11 -13 -20 -6 hvcurveto
          -4 hlineto
          -102 callgsubr
          206 hlineto
          -48 callgsubr
        </CharString>
        <CharString name="dvL_KHA">
          1422 2135 7 callsubr
          -2155 -59 1223 138 callsubr
          183 -335 hlineto
          -29 -11 -13 -20 -6 hvcurveto
          -4 hlineto
          -102 callgsubr
          219 -347 hlineto
          -66 callsubr
        </CharString>
        <CharString name="dvL_K_YA">
          1781 2246 176 -73 callgsubr
          -2514 -59 1257 122 callsubr
          -578 hlineto
          -29 -11 -13 -20 -6 hvcurveto
          -4 hlineto
          -102 callgsubr
          205 166 callsubr
          233 59 -235 hlineto
          -60 callsubr
          581 vlineto
          -99 callgsubr
        </CharString>
        <CharString name="dvL_LA">
          1201 1914 7 callsubr
          -1934 -59 1685 -78 178 callgsubr
          -303 hlineto
          -7 0 -335 hlineto
          -29 -11 -13 -20 -6 hvcurveto
          -4 hlineto
          -102 callgsubr
          237 hlineto
          -39 callgsubr
          -327 -71 callsubr
        </CharString>
        <CharString name="dvL_L_YA">
          1798 1608 46 callgsubr
          -259 hlineto
          -29 -11 -13 -20 -6 hvcurveto
          -4 hlineto
          -4 callgsubr
          -633 hlineto
          -29 -11 -13 -20 -6 hvcurveto
          -4 hlineto
          -102 callgsubr
          225 hlineto
          -39 callgsubr
          -100 callgsubr
          232 hlineto
          655 -250 -73 callgsubr
          -2531 -59 1943 hlineto
          -99 callgsubr
        </CharString>
        <CharString name="dvL_MA">
          1138 1602 485 148 callgsubr
          -1871 -59 1303 -78 -336 hlineto
          -3 0 -335 hlineto
          -29 -11 -13 -20 -6 hvcurveto
          -4 hlineto
          -102 callgsubr
          233 hlineto
          -1 -6 0 -7 -7 vvcurveto
          -1 callgsubr
        </CharString>
        <CharString name="dvL_PA">
          862 1327 -37 callsubr
          249 59 rmoveto
          -1596 -59 922 -78 -293 hlineto
          -29 -11 -13 -20 -6 hvcurveto
          -4 hlineto
          -102 callgsubr
          266 -269 hlineto
          40 callgsubr
        </CharString>
        <CharString name="dvL_PHA">
          1226 1327 204 callgsubr
          -1960 -59 922 -78 -293 vlineto
          -29 -11 -13 -20 -6 hvcurveto
          -4 hlineto
          -102 callgsubr
          266 -269 hlineto
          -53 26 -26 53 vhcurveto
          314 hlineto
          14 11 3 6 7 hvcurveto
          -87 -87 callsubr
        </CharString>
        <CharString name="dvL_SA">
          1168 1632 339 rmoveto
          -241 hlineto
          -74 callsubr
          249 hlineto
          250 59 rmoveto
          -1902 -59 1292 hlineto
          -68 callsubr
          -298 146 -365 hlineto
          -29 -11 -13 -20 -6 hvcurveto
          -4 hlineto
          -102 callgsubr
          249 -347 hlineto
          -15 callsubr
        </CharString>
        <CharString name="dvL_TA">
          855 1568 7 callsubr
          -1588 -59 1339 -78 -710 hlineto
          -29 -11 -13 -20 -6 hvcurveto
          -4 hlineto
          -102 callgsubr
          226 hlineto
          -1 -6 0 -7 -7 vvcurveto
          -327 -58 callsubr
        </CharString>
        <CharString name="dvL_THA">
          1093 634 7 callsubr
          -654 -59 654 hlineto
          1172 59 271 callsubr
          -548 -20 callgsubr
          -58 -247 vlineto
          -29 -11 -13 -20 -6 hvcurveto
          -4 hlineto
          -102 callgsubr
          308 106 hlineto
          24 callsubr
        </CharString>
        <CharString name="dvL_TH_YA">
          1734 791 7 callsubr
          -811 -59 811 hlineto
          1408 -387 -73 callgsubr
          -963 -59 375 63 callgsubr
          -210 275 callgsubr
          -494 -20 callgsubr
          -58 -288 vlineto
          -29 -11 -13 -20 -6 hvcurveto
          -4 hlineto
          -102 callgsubr
          349 106 hlineto
          19 callsubr
          539 hlineto
          25 17 5 11 11 hvcurveto
          -11 13 18 -5 24 227 callsubr
        </CharString>
        <CharString name="dvL_TTA">
          817 1362 426 173 callsubr
          -1550 -59 1294 -78 -329 vlineto
          -1 hlineto
          -335 hlineto
          -29 -11 -13 -20 -6 hvcurveto
          -4 hlineto
          -102 callgsubr
          231 hlineto
          -39 callgsubr
          -327 -57 callgsubr
        </CharString>
        <CharString name="dvL_TTHA">
          840 1326 90 25 callsubr
          -1573 -59 1115 -78 -149 vlineto
          -2 0 -335 hlineto
          -29 -11 -13 -20 -6 hvcurveto
          -4 hlineto
          -102 callgsubr
          232 hlineto
          -39 callgsubr
          -327 -100 callsubr
          389 74 callgsubr
        </CharString>
        <CharString name="dvL_VA">
          841 1554 7 callsubr
          -1574 -59 1326 -392 hlineto
          -26 -8 -8 -73 callsubr
          -306 hlineto
          -6 0 -335 hlineto
          -29 -11 -13 -20 -6 hvcurveto
          -4 hlineto
          -102 callgsubr
          236 hlineto
          -1 -6 0 -7 -7 vvcurveto
          126 callsubr
        </CharString>
        <CharString name="dvL_V_DDA">
          1266 1825 426 269 callsubr
          -1999 -59 1757 -78 -327 vlineto
          86 callgsubr
          -4 31 callgsubr
          -321 -70 callsubr
          -636 hlineto
          -29 -11 -13 -20 -6 hvcurveto
          -4 hlineto
          -102 callgsubr
          225 hlineto
          67 callgsubr
          366 hlineto
          12 146 callgsubr
          -2 -30 callsubr
          endchar
        </CharString>
        <CharString name="dvL_YA">
          1077 890 46 callgsubr
          -281 hlineto
          -29 -11 -13 -20 -6 hvcurveto
          -4 hlineto
          -102 callgsubr
          254 hlineto
          652 -250 -73 callgsubr
          -1810 -59 1222 hlineto
          -99 callgsubr
        </CharString>
        <CharString name="dvM">
          23 535 168 rmoveto
          -97 callgsubr
          -266 hlineto
          252 callgsubr
          hlineto
          374 59 rmoveto
          -285 78 284 59 -928 -45 callgsubr
          269 285 vlineto
          endchar
        </CharString>
        <CharString name="dvMA">
          390 854 485 148 callgsubr
          -1123 -59 555 -78 -336 hlineto
          -53 -26 -26 -53 hvcurveto
          -1 callgsubr
        </CharString>
        <CharString name="dvM_BA">
          867 945 426 rmoveto
          345 59 -666 78 707 158 callsubr
          -37 15 callsubr
          -762 31 rmoveto
          -97 callgsubr
          -266 hlineto
          252 callgsubr
          hlineto
          1045 196 rmoveto
          -1600 -45 callgsubr
          269 205 171 callsubr
        </CharString>
        <CharString name="dvM_BHA">
          1128 106 callgsubr
          1306 196 136 callgsubr
          -235 78 54 59 -698 -59 555 -78 -336 vlineto
          34 callsubr
          324 106 114 callsubr
        </CharString>
        <CharString name="dvM_BH_RA">
          1130 1274 167 rmoveto
          -25 211 callgsubr
          -267 23 callsubr
          131 36 callgsubr
          -739 -161 rmoveto
          -97 callgsubr
          -266 -103 callgsubr
          130 253 callgsubr
          1306 293 rmoveto
          -248 -234 -230 155 hlineto
          22 callgsubr
          -83 89 72 -107 callsubr
          264 -56 callgsubr
          -144 -650 175 63 59 -707 -59 555 -175 159 callsubr
          -152 248 callgsubr
          236 vlineto
          -1 -6 0 -6 -7 vvcurveto
          -153 248 callgsubr
          230 -120 72 callsubr
          -4 283 callgsubr
          89 575 158 vlineto
          endchar
        </CharString>
        <CharString name="dvM_BH_VA">
          1565 106 callgsubr
          1743 196 rmoveto
          -725 -59 477 -392 hlineto
          -26 -8 -8 -73 callsubr
          -306 hlineto
          -103 callsubr
          -37 -232 174 vlineto
          239 callgsubr
          63 59 -707 -59 555 -78 -336 vlineto
          34 callsubr
          324 106 14 callgsubr
          232 -153 53 callsubr
        </CharString>
        <CharString name="dvM_BH_YA">
          1773 2238 182 callsubr
          142 267 -46 callsubr
          147 208 callsubr
          -964 -396 -41 callgsubr
          -739 -142 rmoveto
          -97 callgsubr
          -266 hlineto
          252 callgsubr
          hlineto
          1951 196 rmoveto
          -943 -59 355 -56 callgsubr
          -131 -34 callsubr
          -535 174 hlineto
          239 callgsubr
          63 59 -707 -59 555 -78 -336 vlineto
          34 callsubr
          324 106 14 callgsubr
          220 -153 vlineto
          -85 callsubr
        </CharString>
        <CharString name="dvM_B_RA">
          868 946 426 rmoveto
          345 59 -667 78 708 172 callgsubr
          -42 -31 rmoveto
          -352 23 callsubr
          112 41 callgsubr
          -377 -220 rmoveto
          -97 callgsubr
          -266 hlineto
          252 callgsubr
          hlineto
          1046 196 rmoveto
          -1601 -45 callgsubr
          269 206 vlineto
          -39 callgsubr
          176 callsubr
        </CharString>
        <CharString name="dvM_B_YA">
          1535 2000 176 -104 callgsubr
          -1053 -426 rmoveto
          42 callgsubr
          119 41 callgsubr
          418 -249 rlineto
          -2 -5 -7 -1 -9 hhcurveto
          -686 348 rmoveto
          78 1036 94 callsubr
          -179 hlineto
          -398 237 rlineto
          345 59 hlineto
          -757 -317 rmoveto
          -97 callgsubr
          -266 hlineto
          252 callgsubr
          hlineto
          1713 196 rmoveto
          -2268 -45 callgsubr
          269 207 vlineto
          67 callgsubr
          405 177 callsubr
        </CharString>
        <CharString name="dvM_DA">
          789 624 563 rmoveto
          620 -78 -620 hlineto
          -89 -317 rmoveto
          -97 callgsubr
          -266 hlineto
          252 callgsubr
          hlineto
          797 hmoveto
          137 170 59 -1522 -59 555 -78 -336 vlineto
          34 callsubr
          196 53 callgsubr
        </CharString>
        <CharString name="dvM_HA">
          786 916 46 callgsubr
          -7 0 -285 78 628 -78 hlineto
          -717 -317 rmoveto
          -97 callgsubr
          -266 hlineto
          252 callgsubr
          hlineto
          805 hmoveto
          137 159 59 -1519 -59 555 -78 -336 vlineto
          34 callsubr
          214 73 callsubr
        </CharString>
        <CharString name="dvM_LA">
          1160 1624 46 callgsubr
          178 callgsubr
          -303 hlineto
          -1 hlineto
          -285 78 1000 hlineto
          -1089 -98 callgsubr
          1338 196 rmoveto
          -1893 -45 callgsubr
          269 208 vlineto
          -39 callgsubr
          -327 -71 callsubr
        </CharString>
        <CharString name="dvM_MA">
          1110 1574 -72 callsubr
          -346 59 rmoveto
          0 -285 78 631 -78 -336 vlineto
          -384 -317 rmoveto
          -97 callgsubr
          -266 hlineto
          252 callgsubr
          hlineto
          1288 196 rmoveto
          -1843 -45 callgsubr
          269 217 vlineto
          -1 -6 0 -7 -7 vvcurveto
          -1 callgsubr
        </CharString>
        <CharString name="dvM_NA">
          1102 1566 46 callgsubr
          -654 hlineto
          -3 0 -285 78 942 hlineto
          15 callgsubr
          -714 -258 rmoveto
          -97 callgsubr
          -266 hlineto
          252 callgsubr
          hlineto
          1280 196 rmoveto
          -1835 -45 callgsubr
          269 210 vlineto
          29 callgsubr
        </CharString>
        <CharString name="dvM_PA">
          842 1307 -37 callsubr
          -683 -78 rmoveto
          78 258 -78 vlineto
          -347 -317 rmoveto
          -97 callgsubr
          -266 hlineto
          252 callgsubr
          hlineto
          1021 196 rmoveto
          -1576 -45 callgsubr
          269 258 200 callsubr
        </CharString>
        <CharString name="dvM_P_RA">
          814 1279 17 callgsubr
          -655 -78 rmoveto
          78 230 -78 vlineto
          -319 -317 rmoveto
          -97 callgsubr
          -266 hlineto
          252 callgsubr
          hlineto
          993 196 rmoveto
          -1548 -45 callgsubr
          269 230 -237 73 callgsubr
        </CharString>
        <CharString name="dvM_R">
          23 238 137 rmoveto
          252 callgsubr
          -258 hlineto
          -97 callgsubr
          120 289 rmoveto
          265 59 -265 78 112 59 -756 -45 callgsubr
          257 78 rmoveto
          -309 -292 232 callsubr
          208 205 rlineto
          endchar
        </CharString>
        <CharString name="dvM_RA">
          390 854 485 148 callgsubr
          -1123 -45 callgsubr
          269 230 -217 72 callsubr
          -4 -54 272 callsubr
        </CharString>
        <CharString name="dvM_SA">
          1145 1609 339 rmoveto
          -241 hlineto
          -74 callsubr
          249 hlineto
          -658 -224 rmoveto
          146 -327 78 625 vlineto
          -68 callsubr
          -714 -171 rmoveto
          -97 callgsubr
          -266 hlineto
          252 callgsubr
          hlineto
          1324 196 rmoveto
          -1879 -45 callgsubr
          269 238 -347 4 callsubr
        </CharString>
        <CharString name="dvM_SHA">
          1140 535 168 rmoveto
          -97 callgsubr
          -266 hlineto
          252 callgsubr
          hlineto
          404 196 rmoveto
          -103 callsubr
          -58 -236 78 54 59 -698 -59 555 -78 -336 vlineto
          34 callsubr
          324 106 -92 callsubr
          567 hmoveto
          -249 -622 95 callsubr
        </CharString>
        <CharString name="dvM_TA">
          823 1287 46 callgsubr
          -663 78 663 hlineto
          -752 -98 callgsubr
          1001 196 rmoveto
          -1556 -45 callgsubr
          269 206 vlineto
          -1 -6 0 -7 -7 vvcurveto
          -327 -58 callsubr
        </CharString>
        <CharString name="dvM_VA">
          819 1284 171 rmoveto
          -26 -8 -8 -73 callsubr
          -306 hlineto
          -40 -24 -15 -29 -10 hvcurveto
          -230 122 660 hlineto
          -749 -395 rmoveto
          -97 callgsubr
          -266 -103 callgsubr
          183 253 callgsubr
          997 240 rmoveto
          -1552 -59 555 -122 -336 hlineto
          -103 callsubr
          -205 -100 callsubr
          346 -85 callgsubr
          225 225 -225 53 callsubr
        </CharString>
        <CharString name="dvM_YA">
          1036 1501 176 -104 callgsubr
          -966 -98 callgsubr
          1214 196 rmoveto
          -1769 -45 callgsubr
          269 221 59 -221 78 537 vlineto
          -99 callgsubr
        </CharString>
        <CharString name="dvN">
          -18 824 7 callsubr
          -844 -59 844 hlineto
          -318 -98 callgsubr
          375 59 rmoveto
          -712 hlineto
          -79 callsubr
          288 vlineto
          endchar
        </CharString>
        <CharString name="dvNA">
          359 506 8 callgsubr
          -1092 -59 843 -78 -654 hlineto
          -53 -26 -26 -53 hvcurveto
          12 callsubr
        </CharString>
        <CharString name="dvNG">
          161 328 -61 59 callsubr
          278 374 54 callgsubr
        </CharString>
        <CharString name="dvNGA">
          161 697 313 54 callgsubr
        </CharString>
</ttFont>
